<svg width="49" height="45" viewBox="0 0 49 45" fill="none" xmlns="http://www.w3.org/2000/svg">
<path d="M48.1756 0.462402L39.8015 1.86554L18.5347 21.8627C18.8621 22.3172 19.0737 22.8746 19.0737 23.461C19.0737 24.0144 18.9021 24.5323 18.6077 24.9709C18.0992 24.8193 17.5588 24.737 16.9988 24.737C15.4203 24.737 13.9969 25.3874 13.0145 26.4168L12.0998 25.5567L13.8301 23.9296C13.3769 23.3848 12.936 22.8304 12.506 22.2683L10.5542 24.1033L9.22765 22.8559L11.4189 20.7956C10.9769 20.1736 10.5485 19.5423 10.1347 18.9013L6.03881 22.7528L11.8927 28.2572C11.7308 28.7362 11.6427 29.2455 11.6427 29.7734C11.6427 30.497 11.8084 31.1855 12.1037 31.8089L4.8619 38.6184L3.40029 37.244L0.911133 39.5848L2.37254 40.9592L1.50853 41.7717L4.24362 44.3435L5.10754 43.5308L6.56915 44.9052L9.0585 42.5642L7.59719 41.1903L14.8408 34.3789C15.5019 34.6547 16.2319 34.8095 16.9989 34.8095C17.5603 34.8095 18.1019 34.7268 18.6114 34.5745L24.4702 40.0835L28.566 36.232C27.8837 35.8425 27.2122 35.4396 26.5514 35.0245L24.36 37.085L23.0337 35.8375L24.9854 34.0025C24.3869 33.5975 23.7974 33.1829 23.2183 32.7571L21.4879 34.3842L20.5684 33.5196C21.6631 32.5959 22.3547 31.2575 22.3547 29.7731C22.3547 29.2685 22.2738 28.7811 22.1254 28.3205C22.5975 28.0335 23.1581 27.8658 23.7581 27.8659C24.3815 27.8659 24.9403 28.0329 25.4165 28.3336L46.6835 8.33631L48.1756 0.462402ZM41.5274 5.46632L42.854 6.71371L23.6118 24.8068L22.2853 23.5596L41.5274 5.46632ZM16.9989 26.5011C18.932 26.5011 20.4787 27.9557 20.4787 29.7732C20.4787 31.5909 18.932 33.0454 16.9989 33.0454C15.0659 33.0454 13.5189 31.5909 13.5189 29.7733C13.5189 27.9558 15.0659 26.5011 16.9989 26.5011Z" fill="white"/>
</svg>
