<svg width="45" height="42" viewBox="0 0 45 42" fill="none" xmlns="http://www.w3.org/2000/svg">
<path d="M36.2643 2.12402L1.91309 9.49793L23.8244 30.9186L18.6329 35.7249L43.2246 40.0279L38.5769 17.2607L35.8319 19.8022L39.0365 26.6352L32.14 19.5891L25.1225 13.2105L28.6925 19.6825L16.9118 10.4399L36.2644 2.12402H36.2643ZM20.411 17.6804C21.4102 17.6804 22.2199 18.4299 22.2199 19.3544C22.2199 19.5527 22.1825 19.7429 22.1142 19.9194L25.2077 22.674L28.0845 20.1931L29.1932 21.294L27.6813 22.5976L39.7148 33.3584L41.361 38.2317L36.0951 36.8268L23.8646 25.8889L22.2899 27.2465L21.1813 26.1458L24.0162 23.7013L20.9341 20.957C20.7685 21.0033 20.593 21.0285 20.4111 21.0285C19.4122 21.0285 18.6023 20.2788 18.6023 19.3544C18.6023 18.4299 19.4121 17.6804 20.4111 17.6804H20.411ZM26.4052 23.7691L25.2771 24.8532L37.3341 35.5951L38.4623 34.511L26.4052 23.7691Z" fill="white"/>
</svg>
