<svg width="32" height="31" viewBox="0 0 32 31" fill="none" xmlns="http://www.w3.org/2000/svg">
<path d="M11.1084 18.0462L13.5633 20.4029L28.2091 6.34454L27.7994 4.37954L25.7543 3.98621L11.1084 18.0462ZM6.1987 27.4745C6.51495 27.7889 6.68994 28.2099 6.68598 28.6469C6.68203 29.0839 6.49944 29.5019 6.17755 29.8109C5.85567 30.1199 5.42023 30.2952 4.96502 30.299C4.50982 30.3028 4.07128 30.1348 3.74384 29.8312L1.28551 27.4745C0.959973 27.1618 0.777181 26.7377 0.777344 26.2956C0.777507 25.8535 0.960611 25.4296 1.28638 25.117C1.61214 24.8045 2.05388 24.629 2.51442 24.6292C2.97496 24.6294 3.41657 24.8051 3.74211 25.1179L8.65183 20.4029L6.19697 18.0462C5.88072 17.7319 5.70573 17.3109 5.70968 16.8739C5.71364 16.4369 5.89623 16.0189 6.21811 15.7098C6.54 15.4008 6.97544 15.2256 7.43064 15.2218C7.88585 15.218 8.32439 15.3859 8.65183 15.6895L24.6119 0.366211L30.7508 1.54454L31.9782 7.43788L16.0199 22.7579C16.3456 23.0706 16.5287 23.4948 16.5287 23.937C16.5287 24.3793 16.3456 24.8035 16.0199 25.1162C15.6941 25.4289 15.2523 25.6046 14.7916 25.6046C14.3309 25.6046 13.8891 25.4289 13.5633 25.1162L11.1084 22.7579L6.1987 27.4729V27.4745Z" fill="#9746FF"/>
</svg>
