
<svg width="511" height="491" viewBox="0 0 511 491" fill="none" xmlns="http://www.w3.org/2000/svg">
<path d="M114.373 490.667C108.774 490.667 103.215 488.92 98.4698 485.49C89.6314 479.084 85.5026 468.074 87.9081 457.45L120.782 312.64L9.29434 214.868C1.09923 207.714 -2.03144 196.384 1.33315 186.017C4.69775 175.67 13.8519 168.344 24.6904 167.342L172.202 153.95L230.523 17.4676C234.824 7.44013 244.617 0.964355 255.499 0.964355C266.38 0.964355 276.173 7.44013 280.474 17.4442L338.795 153.95L486.283 167.342C497.145 168.321 506.299 175.67 509.664 186.017C513.029 196.364 509.917 207.714 501.722 214.868L390.234 312.62L423.108 457.427C425.518 468.074 421.385 479.084 412.551 485.47C403.736 491.856 391.981 492.347 382.698 486.768L255.499 410.755L128.299 486.811C123.999 489.365 119.207 490.667 114.373 490.667V490.667ZM255.499 378.01C260.333 378.01 265.121 379.308 269.425 381.862L389.47 453.66L358.444 316.983C356.23 307.256 359.532 297.099 367.049 290.518L472.318 198.197L333.044 185.549C323.017 184.633 314.393 178.329 310.474 169.089L255.499 40.2908L200.456 169.108C196.581 178.286 187.957 184.59 177.953 185.506L38.6595 198.154L143.925 290.476C151.465 297.076 154.763 307.213 152.529 316.963L121.527 453.637L241.572 381.862C245.873 379.308 250.664 378.01 255.499 378.01V378.01ZM171.076 156.59C171.076 156.59 171.076 156.613 171.052 156.632L171.076 156.59ZM339.879 156.527L339.902 156.57C339.902 156.547 339.902 156.547 339.879 156.527Z" fill="#FF6E30"/>
</svg>
