<svg width="513" height="513" viewBox="0 0 513 513" fill="none" xmlns="http://www.w3.org/2000/svg">
<g clip-path="url(#clip0)">
<path d="M479.046 283.925C477.382 279.936 473.499 277.333 469.19 277.333H352.305V10.667C352.305 4.779 347.526 0 341.638 0H170.971C165.083 0 160.304 4.779 160.304 10.667V277.334H42.9706C38.6616 277.334 34.7786 279.937 33.1146 283.905C31.4716 287.894 32.3676 292.481 35.4186 295.532L248.219 509.036C250.224 511.041 252.934 512.172 255.771 512.172C258.608 512.172 261.318 511.041 263.323 509.057L476.742 295.553C479.793 292.501 480.71 287.915 479.046 283.925Z" fill="#9746FF"/>
</g>
<defs>
<clipPath id="clip0">
<rect width="512.171" height="512.171" fill="white"/>
</clipPath>
</defs>
</svg>
