<svg width="24" height="22" viewBox="0 0 24 22" fill="none" xmlns="http://www.w3.org/2000/svg">
<path d="M17 20.9999V18.7777C17 17.599 16.5786 16.4685 15.8284 15.635C15.0783 14.8015 14.0609 14.3333 13 14.3333H5C3.93913 14.3333 2.92172 14.8015 2.17157 15.635C1.42143 16.4685 1 17.599 1 18.7777V20.9999" stroke="#9746FF" stroke-width="2" stroke-linecap="round" stroke-linejoin="round"/>
<path d="M9 9.88889C11.2091 9.88889 13 7.89904 13 5.44444C13 2.98985 11.2091 1 9 1C6.79086 1 5 2.98985 5 5.44444C5 7.89904 6.79086 9.88889 9 9.88889Z" stroke="#9746FF" stroke-width="2" stroke-linecap="round" stroke-linejoin="round"/>
<path d="M23 21V18.7778C22.9993 17.793 22.7044 16.8364 22.1614 16.0581C21.6184 15.2798 20.8581 14.724 20 14.4778" stroke="#9746FF" stroke-width="2" stroke-linecap="round" stroke-linejoin="round"/>
<path d="M16 1.14453C16.8604 1.38931 17.623 1.94531 18.1676 2.72488C18.7122 3.50444 19.0078 4.46323 19.0078 5.45009C19.0078 6.43694 18.7122 7.39573 18.1676 8.1753C17.623 8.95486 16.8604 9.51086 16 9.75564" stroke="#9746FF" stroke-width="2" stroke-linecap="round" stroke-linejoin="round"/>
</svg>
