<svg width="25" height="25" viewBox="0 0 25 25" fill="none" xmlns="http://www.w3.org/2000/svg">
<path d="M19.5879 3.07471H5.58789C4.48332 3.07471 3.58789 3.97014 3.58789 5.07471V19.0747C3.58789 20.1793 4.48332 21.0747 5.58789 21.0747H19.5879C20.6925 21.0747 21.5879 20.1793 21.5879 19.0747V5.07471C21.5879 3.97014 20.6925 3.07471 19.5879 3.07471Z" stroke="#9746FF" stroke-width="2" stroke-linecap="round" stroke-linejoin="round"/>
<path d="M9.08789 10.0747C9.91632 10.0747 10.5879 9.40313 10.5879 8.57471C10.5879 7.74628 9.91632 7.07471 9.08789 7.07471C8.25946 7.07471 7.58789 7.74628 7.58789 8.57471C7.58789 9.40313 8.25946 10.0747 9.08789 10.0747Z" stroke="#9746FF" stroke-width="2" stroke-linecap="round" stroke-linejoin="round"/>
<path d="M21.5879 15.0747L16.5879 10.0747L5.58789 21.0747" stroke="#9746FF" stroke-width="2" stroke-linecap="round" stroke-linejoin="round"/>
</svg>
