<svg width="22" height="22" viewBox="0 0 22 22" fill="none" xmlns="http://www.w3.org/2000/svg">
<path d="M14.4319 6.5L17.9319 3M19.9319 1L17.9319 3L19.9319 1ZM10.3219 10.61C10.8383 11.1195 11.2487 11.726 11.5297 12.3948C11.8106 13.0635 11.9565 13.7813 11.9589 14.5066C11.9614 15.232 11.8203 15.9507 11.5438 16.6213C11.2674 17.2919 10.861 17.9012 10.3481 18.4141C9.83515 18.9271 9.22584 19.3334 8.55522 19.6099C7.8846 19.8864 7.16591 20.0275 6.44055 20.025C5.71518 20.0226 4.99746 19.8767 4.32871 19.5958C3.65995 19.3148 3.05338 18.9043 2.54392 18.388C1.54205 17.3507 0.987677 15.9614 1.00021 14.5193C1.01274 13.0772 1.59117 11.6977 2.61091 10.678C3.63066 9.65825 5.01013 9.07982 6.45221 9.06729C7.89429 9.05476 9.2836 9.60913 10.3209 10.611L10.3219 10.61ZM10.3219 10.61L14.4319 6.5L10.3219 10.61ZM14.4319 6.5L17.4319 9.5L20.9319 6L17.9319 3L14.4319 6.5Z" stroke="#9746FF" stroke-width="2" stroke-linecap="round" stroke-linejoin="round"/>
</svg>
