<svg width="55" height="54" viewBox="0 0 55 54" fill="none" xmlns="http://www.w3.org/2000/svg">
<path d="M27.0783 4.5C30.0299 4.5 32.9525 5.08198 35.6794 6.21271C38.4063 7.34344 40.884 9.00078 42.9711 11.0901C45.0582 13.1794 46.7137 15.6598 47.8432 18.3896C48.9728 21.1194 49.5541 24.0453 49.5541 27C49.5541 32.9674 47.1861 38.6903 42.9711 42.9099C38.7561 47.1295 33.0393 49.5 27.0783 49.5C24.1268 49.5 21.2041 48.918 18.4772 47.7873C15.7503 46.6566 13.2726 44.9992 11.1855 42.9099C6.97052 38.6903 4.60254 32.9674 4.60254 27C4.60254 21.0326 6.97052 15.3097 11.1855 11.0901C15.4006 6.87053 21.1174 4.5 27.0783 4.5ZM18.088 17.3475V24.8625L34.1357 27L18.088 29.1375V36.6525L40.5638 27L18.088 17.3475Z" fill="#FAFAFA"/>
</svg>
