<svg width="243" height="31" viewBox="0 0 243 31" fill="none" xmlns="http://www.w3.org/2000/svg">
<path d="M24.7524 1.44629C24.8735 1.76921 24.8331 2.05176 24.6313 2.29395C24.4497 2.51595 24.2579 2.67741 24.0561 2.77832C23.6928 2.95996 23.2488 3.08105 22.7241 3.1416C22.2195 3.20215 21.7654 3.31315 21.3618 3.47461C21.1398 3.57552 20.9682 3.70671 20.8471 3.86816C20.726 4.00944 20.5545 4.11035 20.3325 4.1709C19.6261 4.1709 18.9197 4.16081 18.2133 4.14062C17.5271 4.12044 16.8107 4.14062 16.0639 4.20117C15.9227 4.22135 15.7814 4.26172 15.6401 4.32227C15.4988 4.36263 15.3575 4.38281 15.2163 4.38281C15.0346 4.38281 14.8429 4.35254 14.6411 4.29199C14.4594 4.23145 14.2677 4.22135 14.0659 4.26172C13.965 4.2819 13.8741 4.33236 13.7934 4.41309C13.7329 4.47363 13.6521 4.54427 13.5512 4.625C13.188 4.84701 12.7843 5.06901 12.3403 5.29102C11.8963 5.49284 11.4825 5.72493 11.0991 5.9873C10.756 6.22949 10.4633 6.54232 10.2212 6.92578C9.97897 7.28906 9.72669 7.67253 9.46432 8.07617C9.38359 8.21745 9.29277 8.35872 9.19186 8.5C9.11113 8.62109 9.05058 8.7321 9.01022 8.83301C8.96985 8.9541 8.94967 9.09538 8.94967 9.25684C8.96985 9.39811 8.95976 9.54948 8.9194 9.71094C8.87903 9.95312 8.82858 10.2155 8.76803 10.498C8.70748 10.7806 8.62675 11.043 8.52584 11.2852C8.42493 11.5475 8.31393 11.8099 8.19283 12.0723C8.09192 12.3145 8.02128 12.5566 7.98092 12.7988C7.94055 13.0814 7.91028 13.3639 7.8901 13.6465C7.8901 13.9089 7.83964 14.1914 7.73873 14.4941C7.67818 14.7565 7.60755 15.0189 7.52682 15.2812C7.46627 15.5234 7.42591 15.7858 7.40572 16.0684C7.38554 16.5326 7.41582 16.9867 7.49654 17.4307C7.57727 17.8545 7.61764 18.2985 7.61764 18.7627C7.96074 19.1663 8.27356 19.5599 8.55611 19.9434C8.85885 20.3066 9.2524 20.569 9.73678 20.7305C9.91842 20.791 10.1202 20.8213 10.3422 20.8213C10.5643 20.8213 10.7963 20.8112 11.0385 20.791C11.2807 20.7507 11.5229 20.7204 11.7651 20.7002C12.0275 20.6598 12.2797 20.6497 12.5219 20.6699C12.7036 20.6901 12.8449 20.7305 12.9458 20.791C13.0669 20.8314 13.1779 20.8717 13.2788 20.9121C13.3999 20.9525 13.521 20.9928 13.6421 21.0332C13.7833 21.0736 13.9448 21.0837 14.1264 21.0635C14.4695 21.0433 14.8126 21.0231 15.1557 21.0029C15.4988 20.9827 15.8419 20.9525 16.185 20.9121C16.7299 20.8717 17.2244 20.7708 17.6684 20.6094C18.1326 20.4479 18.5766 20.2965 19.0005 20.1553C19.1014 20.1149 19.2023 20.0947 19.3032 20.0947C19.4041 20.0947 19.505 20.0745 19.6059 20.0342C19.7674 19.9736 19.9087 19.903 20.0297 19.8223C20.171 19.7415 20.3325 19.6608 20.5141 19.5801C20.6958 19.4792 20.8774 19.3783 21.059 19.2773C21.2609 19.1764 21.4122 19.1462 21.5131 19.1865C21.6544 19.2269 21.7352 19.3682 21.7553 19.6104C21.7957 19.8324 21.8058 19.9736 21.7856 20.0342C21.7452 20.1755 21.6342 20.2965 21.4526 20.3975C21.271 20.4984 21.0893 20.6296 20.9077 20.791C20.7059 20.9323 20.5343 21.0635 20.393 21.1846C20.2518 21.3057 20.1105 21.4167 19.9692 21.5176C19.6261 21.7598 19.2628 21.9818 18.8794 22.1836C18.5161 22.3854 18.1831 22.5872 17.8803 22.7891C17.5978 22.9505 17.3657 23.1221 17.184 23.3037C17.0024 23.4652 16.7703 23.5964 16.4878 23.6973C16.185 23.8184 15.8419 23.8991 15.4585 23.9395C15.075 23.9596 14.742 24.0202 14.4594 24.1211C14.2374 24.2018 14.0659 24.3128 13.9448 24.4541C13.8439 24.6156 13.6521 24.7367 13.3696 24.8174C12.8449 24.999 12.2898 25.11 11.7046 25.1504C11.1193 25.1908 10.5037 25.1706 9.85787 25.0898C8.88912 24.9486 7.93046 24.7064 6.9819 24.3633C6.05351 24.0404 5.22604 23.6771 4.49947 23.2734C4.39856 22.9909 4.21692 22.7689 3.95455 22.6074C3.69218 22.446 3.48027 22.234 3.31881 21.9717C3.0968 21.6891 2.90507 21.3965 2.74361 21.0938C2.60234 20.7708 2.36015 20.5085 2.01705 20.3066C2.09778 19.8223 2.02714 19.4489 1.80514 19.1865C1.58313 18.904 1.36113 18.6416 1.13912 18.3994C0.917117 17.5719 0.76575 16.7041 0.685021 15.7959C0.624474 14.8877 0.695112 13.9896 0.896935 13.1016C0.9373 12.9401 0.987755 12.7988 1.0483 12.6777C1.12903 12.5566 1.18958 12.4255 1.22994 12.2842C1.29049 12.1025 1.33085 11.9108 1.35104 11.709C1.37122 11.5072 1.40149 11.3255 1.44186 11.1641C1.6235 10.498 1.86569 9.89258 2.16842 9.34766C2.47115 8.78255 2.79407 8.22754 3.13717 7.68262C3.29863 7.44043 3.46009 7.21842 3.62154 7.0166C3.80318 6.81478 3.98483 6.59277 4.16647 6.35059C4.2472 6.24967 4.31783 6.14876 4.37838 6.04785C4.45911 5.92676 4.54993 5.81576 4.65084 5.71484C4.8123 5.55339 4.99394 5.4222 5.19576 5.32129C5.39759 5.2002 5.57923 5.05892 5.74068 4.89746C5.96269 4.63509 6.12415 4.32227 6.22506 3.95898C6.34615 3.57552 6.5177 3.2526 6.73971 2.99023C6.78007 2.92969 6.85071 2.85905 6.95162 2.77832C7.07272 2.69759 7.19381 2.61686 7.3149 2.53613C7.45618 2.4554 7.58736 2.38477 7.70846 2.32422C7.84973 2.24349 7.96074 2.18294 8.04147 2.14258C8.46529 1.94076 8.89921 1.81966 9.34322 1.7793C9.80742 1.71875 10.3019 1.60775 10.8266 1.44629C11.1294 1.34538 11.4422 1.24447 11.7651 1.14355C12.088 1.04264 12.3908 0.972005 12.6733 0.931641C13.1375 0.850911 13.6723 0.800456 14.2778 0.780273C14.8833 0.760091 15.4484 0.800456 15.9731 0.901367C16.0538 0.921549 16.1245 0.951823 16.185 0.992188C16.2456 1.01237 16.3263 1.03255 16.4272 1.05273C16.6492 1.0931 16.8611 1.0931 17.063 1.05273C17.285 1.01237 17.4868 1.01237 17.6684 1.05273C17.7693 1.07292 17.8602 1.11328 17.9409 1.17383C18.0216 1.21419 18.1225 1.24447 18.2436 1.26465C18.3445 1.30501 18.4555 1.3252 18.5766 1.3252C18.6977 1.30501 18.8188 1.3151 18.9399 1.35547C19.061 1.39583 19.1922 1.44629 19.3335 1.50684C19.4747 1.5472 19.6059 1.58757 19.727 1.62793C20.0096 1.66829 20.3123 1.68848 20.6352 1.68848C20.9581 1.68848 21.2609 1.67839 21.5434 1.6582C22.0883 1.61784 22.6232 1.5472 23.1479 1.44629C23.6727 1.34538 24.2075 1.34538 24.7524 1.44629Z" fill="#9746FF"/>
<path d="M34.6554 1.44629C34.6554 1.58757 34.6151 1.71875 34.5344 1.83984C34.4536 1.94076 34.3628 2.04167 34.2619 2.14258C34.161 2.22331 34.05 2.31413 33.9289 2.41504C33.828 2.51595 33.7472 2.62695 33.6867 2.74805C33.6665 2.78841 33.6564 2.85905 33.6564 2.95996C33.6766 3.04069 33.6665 3.11133 33.6262 3.17188C33.5252 3.45443 33.384 3.76725 33.2023 4.11035C33.0207 4.43327 32.8592 4.76628 32.7179 5.10938C32.6574 5.27083 32.5868 5.44238 32.506 5.62402C32.4455 5.78548 32.3648 5.94694 32.2638 6.1084C32.1831 6.26986 32.0822 6.44141 31.9611 6.62305C31.8602 6.78451 31.7997 6.92578 31.7795 7.04688C31.7593 7.14779 31.7694 7.2487 31.8097 7.34961C31.8703 7.43034 31.9006 7.52116 31.9006 7.62207C31.8602 7.82389 31.7997 8.03581 31.7189 8.25781C31.6382 8.47982 31.5776 8.70182 31.5373 8.92383C31.4969 9.1862 31.4566 9.43848 31.4162 9.68066C31.396 9.90267 31.3556 10.1146 31.2951 10.3164C31.1942 10.599 31.0832 10.932 30.9621 11.3154C30.841 11.6787 30.7502 12.0622 30.6896 12.4658C31.396 12.4658 32.0721 12.375 32.7179 12.1934C33.384 12.0117 34.0096 11.82 34.5949 11.6182C34.7362 11.6585 34.9481 11.6888 35.2306 11.709C35.5132 11.7292 35.8058 11.7393 36.1086 11.7393C36.4315 11.7393 36.7544 11.7393 37.0773 11.7393C37.4002 11.7191 37.6828 11.6888 37.925 11.6484C38.1672 11.6283 38.4598 11.5778 38.8029 11.4971C39.146 11.3962 39.368 11.2852 39.4689 11.1641C39.6304 10.9421 39.7414 10.6191 39.8019 10.1953C39.8625 9.77148 39.9432 9.36784 40.0441 8.98438C40.145 8.64128 40.2661 8.30827 40.4074 7.98535C40.5487 7.66243 40.6597 7.34961 40.7404 7.04688C40.7808 6.92578 40.7909 6.80469 40.7707 6.68359C40.7707 6.54232 40.7909 6.41113 40.8312 6.29004C40.9321 5.94694 41.0835 5.61393 41.2853 5.29102C41.4872 4.9681 41.6183 4.69564 41.6789 4.47363C41.7394 4.25163 41.7798 4.01953 41.8 3.77734C41.8202 3.53516 41.8403 3.30306 41.8605 3.08105C41.9009 2.85905 41.9413 2.65723 41.9816 2.47559C42.0422 2.27376 42.1431 2.10221 42.2844 1.96094C42.3651 1.92057 42.4357 1.88021 42.4963 1.83984C42.577 1.7793 42.6577 1.71875 42.7385 1.6582C43.0008 1.73893 43.2329 1.7793 43.4347 1.7793C43.6366 1.7793 43.8283 1.76921 44.0099 1.74902C44.2118 1.70866 44.4035 1.6582 44.5851 1.59766C44.7668 1.53711 44.9787 1.47656 45.2209 1.41602C45.4025 1.57747 45.5438 1.75911 45.6447 1.96094C45.7456 2.14258 45.9373 2.24349 46.2199 2.26367C46.341 2.26367 46.4621 2.22331 46.5832 2.14258C46.7043 2.06185 46.8456 2.0013 47.007 1.96094C47.2896 1.88021 47.6327 1.78939 48.0363 1.68848C48.4601 1.56738 48.8234 1.50684 49.1262 1.50684C49.4693 1.48665 49.7821 1.51693 50.0646 1.59766C50.3472 1.6582 50.66 1.63802 51.0031 1.53711C51.0838 1.61784 51.1545 1.70866 51.215 1.80957C51.2756 1.91048 51.2756 2.06185 51.215 2.26367C51.0132 2.42513 50.8013 2.56641 50.5793 2.6875C50.3775 2.78841 50.1655 2.89941 49.9435 3.02051C49.7417 3.12142 49.5399 3.23242 49.3381 3.35352C49.1564 3.47461 48.9849 3.62598 48.8234 3.80762C48.5409 4.13053 48.2987 4.514 48.0969 4.95801C47.9152 5.40202 47.7134 5.82585 47.4914 6.22949C47.4107 6.37077 47.3198 6.51204 47.2189 6.65332C47.118 6.77441 47.0474 6.88542 47.007 6.98633C46.8859 7.28906 46.8052 7.62207 46.7648 7.98535C46.7245 8.32845 46.6639 8.67155 46.5832 9.01465C46.5025 9.35775 46.4116 9.69076 46.3107 10.0137C46.2098 10.3164 46.1392 10.6393 46.0988 10.9824C46.3612 11.0833 46.6135 11.1136 46.8556 11.0732C47.0978 11.0127 47.3804 10.9925 47.7033 11.0127C47.8648 11.0329 48.0262 11.0632 48.1877 11.1035C48.3491 11.1439 48.5308 11.1742 48.7326 11.1943C49.0353 11.2145 49.3078 11.2145 49.55 11.1943C49.7922 11.154 50.0545 11.1439 50.3371 11.1641C50.438 11.1641 50.5692 11.1742 50.7306 11.1943C50.8921 11.1943 51.0435 11.2145 51.1847 11.2549C51.3462 11.2952 51.4774 11.3558 51.5783 11.4365C51.6994 11.4971 51.7599 11.5879 51.7599 11.709C51.7801 11.8704 51.6489 12.042 51.3664 12.2236C51.104 12.3851 50.882 12.5062 50.7004 12.5869C50.3573 12.7484 50.0243 12.8392 49.7013 12.8594C49.3986 12.8796 49.0252 12.9401 48.5812 13.041C48.2987 13.0814 48.0464 13.1924 47.8244 13.374C47.6226 13.5355 47.3501 13.6465 47.007 13.707C46.6639 13.7676 46.3713 13.8079 46.1291 13.8281C45.8869 13.8281 45.564 13.8483 45.1603 13.8887C44.7567 14.4134 44.4842 15.029 44.3429 15.7354C44.2219 16.4215 44.1109 17.1178 44.0099 17.8242C43.9292 18.349 43.8283 18.8838 43.7072 19.4287C43.5861 19.9535 43.4448 20.4479 43.2834 20.9121C43.2228 21.1745 43.1017 21.4167 42.9201 21.6387C42.7586 21.8405 42.5972 22.0928 42.4357 22.3955C42.3348 22.6175 42.244 22.8395 42.1633 23.0615C42.1027 23.2835 42.0119 23.4652 41.8908 23.6064C41.7293 23.7679 41.5073 23.889 41.2248 23.9697C40.9422 24.0505 40.7101 24.1514 40.5285 24.2725C40.2863 24.4743 40.0845 24.6761 39.923 24.8779C39.7818 25.0798 39.5698 25.2614 39.2873 25.4229C39.0855 25.443 38.9139 25.4531 38.7726 25.4531C38.6515 25.4531 38.5405 25.443 38.4396 25.4229C38.3387 25.4027 38.2378 25.3623 38.1369 25.3018C38.0562 25.2614 37.9553 25.1908 37.8342 25.0898C37.7938 24.9688 37.7837 24.8577 37.8039 24.7568C37.8241 24.6761 37.814 24.5651 37.7736 24.4238C37.6525 24.3835 37.5516 24.4137 37.4709 24.5146C37.4103 24.6357 37.2993 24.6963 37.1379 24.6963C36.9764 24.6963 36.815 24.5954 36.6535 24.3936C36.492 24.2119 36.4214 24.0303 36.4416 23.8486C36.4618 23.7074 36.5122 23.5459 36.5929 23.3643C36.6737 23.1624 36.7342 22.9505 36.7746 22.7285C36.815 22.5469 36.8452 22.3551 36.8654 22.1533C36.9058 21.9313 36.9562 21.7295 37.0168 21.5479C37.0571 21.4469 37.1076 21.346 37.1681 21.2451C37.2287 21.1442 37.2691 21.0332 37.2892 20.9121C37.3498 20.5892 37.37 20.2865 37.3498 20.0039C37.3498 19.7012 37.3801 19.4085 37.4406 19.126C37.481 19.0251 37.5213 18.9342 37.5617 18.8535C37.6222 18.7728 37.6727 18.682 37.7131 18.5811C37.8342 18.238 37.9553 17.9049 38.0763 17.582C38.1974 17.2591 38.3084 16.9362 38.4094 16.6133C38.5103 16.2702 38.6213 15.9271 38.7424 15.584C38.8836 15.2409 38.924 14.9079 38.8635 14.585C38.6011 14.5648 38.3488 14.585 38.1066 14.6455C37.8644 14.7061 37.6222 14.7767 37.3801 14.8574C37.1379 14.9382 36.8856 15.0189 36.6232 15.0996C36.3609 15.1602 36.0884 15.1904 35.8058 15.1904C35.6847 15.1904 35.5132 15.1803 35.2912 15.1602C35.0894 15.14 34.8674 15.1198 34.6252 15.0996C34.383 15.0794 34.1408 15.0794 33.8986 15.0996C33.6766 15.0996 33.495 15.1097 33.3537 15.1299C33.1115 15.1702 32.8592 15.251 32.5969 15.3721C32.3547 15.4932 32.0923 15.5941 31.8097 15.6748C31.5272 15.7354 31.2648 15.8161 31.0226 15.917C30.8006 16.0179 30.5685 16.0885 30.3263 16.1289C30.1043 16.2702 29.9429 16.4821 29.842 16.7646C29.7411 17.027 29.6502 17.3096 29.5695 17.6123C29.509 17.915 29.4181 18.1976 29.2971 18.46C29.1961 18.7223 29.0145 18.904 28.7521 19.0049C28.8732 19.126 28.9237 19.3783 28.9035 19.7617C28.8833 20.125 28.843 20.4681 28.7824 20.791C28.6815 21.3359 28.5402 21.8506 28.3586 22.335C28.1971 22.8193 28.0054 23.2533 27.7834 23.6367C27.4605 23.778 27.1476 23.9193 26.8449 24.0605C26.5624 24.222 26.2193 24.3229 25.8156 24.3633C25.7147 24.3229 25.6441 24.2422 25.6037 24.1211C25.5835 24.0202 25.5633 23.9092 25.5431 23.7881C25.4422 24.0303 25.301 24.222 25.1193 24.3633C24.9579 24.5247 24.7762 24.666 24.5744 24.7871C24.3726 24.9082 24.1708 25.0293 23.9689 25.1504C23.7873 25.2715 23.6359 25.4329 23.5148 25.6348C23.0506 25.6348 22.647 25.6348 22.3039 25.6348C21.9608 25.6549 21.6278 25.5843 21.3049 25.4229C21.204 25.0999 21.204 24.777 21.3049 24.4541C21.3856 24.1514 21.4461 23.8587 21.4865 23.5762C21.5067 23.4349 21.5067 23.3037 21.4865 23.1826C21.4663 23.0615 21.4663 22.9404 21.4865 22.8193C21.5269 22.5166 21.6076 22.1533 21.7287 21.7295C21.8296 21.2855 21.9507 20.902 22.092 20.5791C22.1525 20.4176 22.2333 20.2865 22.3342 20.1855C22.4351 20.0645 22.5259 19.9232 22.6066 19.7617C22.6874 19.5599 22.7378 19.3682 22.758 19.1865C22.7782 19.0049 22.8286 18.8333 22.9094 18.6719C22.9497 18.4902 23.0103 18.3288 23.091 18.1875C23.1919 18.026 23.2625 17.8646 23.3029 17.7031C23.3433 17.5618 23.3534 17.4206 23.3332 17.2793C23.3332 17.138 23.3534 16.9867 23.3937 16.8252C23.4139 16.7243 23.4543 16.6335 23.5148 16.5527C23.5754 16.472 23.6157 16.3812 23.6359 16.2803C23.6561 16.0583 23.6056 15.8464 23.4846 15.6445C23.3635 15.4225 23.2525 15.2106 23.1515 15.0088C23.0506 14.807 22.9901 14.5951 22.9699 14.373C22.9497 14.151 23.0506 13.9189 23.2726 13.6768C23.4745 13.6162 23.6763 13.5658 23.8781 13.5254C24.1001 13.4648 24.2818 13.3841 24.423 13.2832C24.5239 12.8796 24.6047 12.486 24.6652 12.1025C24.7258 11.7191 24.8065 11.3356 24.9074 10.9521C24.9478 10.7503 25.0083 10.5586 25.089 10.377C25.19 10.1953 25.2606 10.0238 25.301 9.8623C25.3413 9.68066 25.3514 9.49902 25.3312 9.31738C25.311 9.11556 25.3312 8.93392 25.3918 8.77246C25.4321 8.611 25.5129 8.47982 25.634 8.37891C25.7551 8.27799 25.8459 8.14681 25.9064 7.98535C25.745 7.74316 25.6743 7.44043 25.6945 7.07715C25.7349 6.71387 25.8055 6.3304 25.9064 5.92676C26.0275 5.52311 26.1587 5.11947 26.3 4.71582C26.4413 4.29199 26.5422 3.88835 26.6027 3.50488C26.7036 3.08105 26.8045 2.70768 26.9055 2.38477C27.0064 2.06185 27.2485 1.86003 27.632 1.7793C28.3586 1.86003 29.075 1.82975 29.7814 1.68848C30.4878 1.52702 31.1942 1.35547 31.9006 1.17383C32.0015 1.15365 32.0519 1.19401 32.0519 1.29492C32.0721 1.37565 32.1226 1.42611 32.2033 1.44629C32.3446 1.30501 32.5262 1.2041 32.7482 1.14355C32.9702 1.06283 33.1922 1.03255 33.4142 1.05273C33.6564 1.05273 33.8885 1.0931 34.1105 1.17383C34.3325 1.23438 34.5142 1.3252 34.6554 1.44629Z" fill="#9746FF"/>
<path d="M64.4784 15.9473C64.9224 16.2904 65.3765 16.6335 65.8407 16.9766C66.3251 17.3197 66.7086 17.7334 66.9911 18.2178C66.9306 18.3994 66.9205 18.5508 66.9608 18.6719C67.0012 18.7728 67.0617 18.8737 67.1425 18.9746C67.2434 19.0553 67.3342 19.1462 67.4149 19.2471C67.5159 19.3278 67.5865 19.4388 67.6269 19.5801C67.6874 19.8424 67.6672 20.1452 67.5663 20.4883C67.4654 20.8112 67.3948 21.1341 67.3544 21.457C67.314 21.6185 67.2838 21.79 67.2636 21.9717C67.2636 22.1331 67.2434 22.2946 67.203 22.4561C67.1223 22.8799 67.0617 23.2835 67.0214 23.667C66.981 24.0505 67.0315 24.4541 67.1728 24.8779C67.2737 25.2008 67.4452 25.554 67.6874 25.9375C67.9498 26.3411 68.2121 26.6035 68.4745 26.7246C68.5754 26.7852 68.6562 26.8053 68.7167 26.7852C68.7772 26.7852 68.858 26.8053 68.9589 26.8457C69.08 26.9062 69.1708 26.9971 69.2313 27.1182C69.3121 27.2393 69.4433 27.3301 69.6249 27.3906C69.9075 27.209 70.2203 27.1585 70.5634 27.2393C70.9065 27.3402 71.2496 27.3805 71.5927 27.3604C71.6936 27.3604 71.7844 27.3301 71.8651 27.2695C71.9459 27.2292 72.0266 27.209 72.1073 27.209C72.5715 27.1686 73.0458 27.1283 73.5302 27.0879C74.0347 27.0475 74.5191 26.9567 74.9833 26.8154C75.2053 26.7549 75.4374 26.654 75.6796 26.5127C75.9218 26.3714 76.164 26.2301 76.4062 26.0889C76.7291 25.887 77.052 25.6751 77.3749 25.4531C77.718 25.2311 78.1015 25.1908 78.5253 25.332C78.5455 25.7155 78.4849 26.0182 78.3437 26.2402C78.2024 26.4824 78.0207 26.6842 77.7987 26.8457C77.5767 27.0273 77.3446 27.1989 77.1024 27.3604C76.8603 27.5218 76.6584 27.7035 76.497 27.9053C76.1337 28.0062 75.841 28.1374 75.619 28.2988C75.397 28.4805 75.1448 28.6621 74.8622 28.8438C74.7007 28.9245 74.5393 28.985 74.3778 29.0254C74.2366 29.0658 74.0953 29.1364 73.954 29.2373C73.7925 29.318 73.6513 29.429 73.5302 29.5703C73.4091 29.7116 73.2779 29.8327 73.1366 29.9336C72.9752 30.0345 72.7834 30.0951 72.5614 30.1152C72.3596 30.1556 72.1679 30.196 71.9862 30.2363C71.4413 30.3978 70.8661 30.529 70.2606 30.6299C69.6552 30.751 69.0396 30.8216 68.414 30.8418C67.8085 30.8822 67.203 30.8519 66.5976 30.751C65.9921 30.6702 65.4169 30.5088 64.872 30.2666C64.5692 30.1455 64.317 29.984 64.1151 29.7822C63.9335 29.6006 63.7317 29.3988 63.5097 29.1768C63.2473 28.9548 62.9647 28.6924 62.662 28.3896C62.3795 28.1071 62.1575 27.8245 61.996 27.542C61.9355 27.3805 61.8749 27.1888 61.8144 26.9668C61.774 26.7448 61.7235 26.5228 61.663 26.3008C61.6024 26.0788 61.5217 25.8265 61.4208 25.5439C61.3401 25.2816 61.2997 24.999 61.2997 24.6963C61.2795 24.1917 61.3199 23.667 61.4208 23.1221C61.5419 22.557 61.6428 22.012 61.7235 21.4873C61.8244 20.9424 61.8749 20.4277 61.8749 19.9434C61.8749 19.4388 61.774 18.9948 61.5722 18.6113C61.5116 18.4902 61.4208 18.3792 61.2997 18.2783C61.1988 18.1572 61.0979 18.026 60.997 17.8848C60.775 17.6022 60.5328 17.3499 60.2704 17.1279C60.008 16.8857 59.6448 16.7344 59.1806 16.6738C58.8577 16.6335 58.4944 16.6335 58.0907 16.6738C57.6871 16.694 57.3944 16.7747 57.2128 16.916C56.9302 17.0775 56.7688 17.3398 56.7284 17.7031C56.7082 18.0462 56.6578 18.4095 56.5771 18.793C56.4761 19.2572 56.3349 19.681 56.1532 20.0645C55.9918 20.4479 55.9413 20.8818 56.0019 21.3662C56.0422 21.568 56.1028 21.8102 56.1835 22.0928C56.2642 22.3753 56.345 22.5973 56.4257 22.7588C56.4862 22.9001 56.5871 23.0716 56.7284 23.2734C56.8697 23.4753 56.8899 23.6569 56.789 23.8184C56.6679 23.9798 56.4661 24.0404 56.1835 24C55.9009 23.9596 55.6184 23.9294 55.3358 23.9092C54.9927 23.889 54.7001 23.8789 54.4579 23.8789C54.2359 23.8587 54.024 23.8587 53.8222 23.8789C53.6203 23.8789 53.4084 23.8991 53.1864 23.9395C52.9644 23.9596 52.692 23.9899 52.369 24.0303C52.2076 24.0505 52.0764 24.0706 51.9755 24.0908C51.8948 24.111 51.814 24.1312 51.7333 24.1514C51.6728 24.1917 51.6021 24.222 51.5214 24.2422C51.4608 24.2826 51.3599 24.3229 51.2187 24.3633C51.0976 24.4036 50.9866 24.4541 50.8856 24.5146C50.7847 24.5954 50.6838 24.6559 50.5829 24.6963C50.2398 24.7972 49.8664 24.8577 49.4628 24.8779C49.0591 24.9183 48.6757 24.9385 48.3124 24.9385C47.9693 24.9587 47.6262 24.9486 47.2831 24.9082C46.9198 24.888 46.5969 24.8275 46.3144 24.7266C46.3547 24.4844 46.4657 24.3229 46.6474 24.2422C46.829 24.1615 46.9804 24.0505 47.1015 23.9092C47.6262 23.8083 48.161 23.5863 48.706 23.2432C49.2307 22.8799 49.5738 22.4359 49.7353 21.9111C49.7958 21.7295 49.8362 21.5378 49.8563 21.3359C49.8765 21.1139 49.9068 20.902 49.9472 20.7002C50.0481 20.1755 50.149 19.6406 50.2499 19.0957C50.3508 18.5508 50.482 18.0059 50.6435 17.4609C50.6838 17.36 50.7343 17.2692 50.7948 17.1885C50.8554 17.1077 50.9058 17.0169 50.9462 16.916C51.0673 16.5729 51.1379 16.2197 51.1581 15.8564C51.1985 15.473 51.2691 15.1097 51.37 14.7666C51.4709 14.5042 51.5718 14.262 51.6728 14.04C51.7737 13.7979 51.8544 13.5557 51.9149 13.3135C51.9755 13.0511 52.0259 12.7988 52.0663 12.5566C52.1269 12.3145 52.2278 12.0924 52.369 11.8906C52.4094 11.5475 52.4498 11.2246 52.4901 10.9219C52.5305 10.6191 52.5406 10.266 52.5204 9.8623C52.7424 9.59993 52.9442 9.32747 53.1259 9.04492C53.3277 8.74219 53.4589 8.389 53.5194 7.98535C53.5598 7.76335 53.5497 7.55143 53.4892 7.34961C53.4488 7.14779 53.4286 6.92578 53.4286 6.68359C53.4488 6.15885 53.4892 5.69466 53.5497 5.29102C53.6304 4.86719 53.691 4.3929 53.7313 3.86816C53.5699 3.50488 53.3176 3.2627 52.9745 3.1416C52.6516 3.00033 52.2984 2.80859 51.9149 2.56641C51.8544 2.54622 51.7737 2.50586 51.6728 2.44531C51.5718 2.38477 51.4608 2.32422 51.3397 2.26367C51.2388 2.18294 51.148 2.10221 51.0673 2.02148C51.0067 1.94076 50.9765 1.87012 50.9765 1.80957C50.9966 1.66829 51.0774 1.55729 51.2187 1.47656C51.3801 1.37565 51.5517 1.3151 51.7333 1.29492C51.9351 1.25456 52.1369 1.24447 52.3388 1.26465C52.5406 1.26465 52.7121 1.27474 52.8534 1.29492C53.358 1.39583 53.8424 1.49674 54.3065 1.59766C54.7707 1.69857 55.245 1.78939 55.7294 1.87012C56.234 1.93066 56.7587 1.97103 57.3036 1.99121C57.8687 2.01139 58.5045 1.99121 59.2108 1.93066C59.4732 1.91048 59.6952 1.88021 59.8769 1.83984C60.0787 1.7793 60.3007 1.73893 60.5429 1.71875C60.886 1.69857 61.219 1.66829 61.5419 1.62793C61.885 1.56738 62.2281 1.55729 62.5712 1.59766C63.1968 1.6582 63.7519 1.6582 64.2362 1.59766C64.7206 1.51693 65.2353 1.50684 65.7802 1.56738C66.0425 1.60775 66.2847 1.68848 66.5067 1.80957C66.7489 1.91048 66.981 2.02148 67.203 2.14258C67.4452 2.26367 67.6773 2.37467 67.8993 2.47559C68.1415 2.55632 68.3837 2.60677 68.6259 2.62695C68.9892 2.84896 69.3323 3.13151 69.6552 3.47461C69.9983 3.81771 70.3111 4.20117 70.5937 4.625C70.8157 4.9681 71.0276 5.36165 71.2294 5.80566C71.4312 6.24967 71.5826 6.62305 71.6835 6.92578C71.8248 7.28906 71.8853 7.65234 71.8651 8.01562C71.845 8.35872 71.7945 8.69173 71.7138 9.01465C71.5523 9.59993 71.3505 10.1247 71.1083 10.5889C70.8661 11.0531 70.5937 11.4971 70.2909 11.9209C70.0084 12.3245 69.7056 12.7383 69.3827 13.1621C69.08 13.5658 68.7974 13.9896 68.5351 14.4336C68.3736 14.4941 68.2121 14.5345 68.0507 14.5547C67.9094 14.5547 67.7681 14.585 67.6269 14.6455C67.4048 14.7464 67.2131 14.8978 67.0517 15.0996C66.8902 15.2812 66.6783 15.4124 66.4159 15.4932C66.315 15.5335 66.204 15.5436 66.0829 15.5234C65.982 15.5033 65.8811 15.5033 65.7802 15.5234C65.5582 15.584 65.3463 15.6647 65.1444 15.7656C64.9628 15.8464 64.7408 15.9069 64.4784 15.9473ZM62.6923 13.374C63.0152 12.9704 63.3684 12.597 63.7519 12.2539C64.1353 11.8906 64.4381 11.4769 64.6601 11.0127C64.761 10.7907 64.8417 10.5283 64.9022 10.2256C64.983 9.90267 65.0536 9.59993 65.1142 9.31738C65.2151 8.71191 65.2252 8.17708 65.1444 7.71289C65.0637 7.2487 64.9224 6.83496 64.7206 6.47168C64.5188 6.1084 64.2665 5.79557 63.9638 5.5332C63.661 5.27083 63.328 5.03874 62.9647 4.83691C62.6822 4.67546 62.3896 4.50391 62.0868 4.32227C61.8043 4.12044 61.4511 4.08008 61.0272 4.20117C60.7245 4.38281 60.4722 4.67546 60.2704 5.0791C60.0888 5.48275 59.9172 5.85612 59.7558 6.19922C59.6952 6.34049 59.6246 6.48177 59.5438 6.62305C59.4833 6.76432 59.4328 6.88542 59.3925 6.98633C59.3723 7.1276 59.3723 7.27897 59.3925 7.44043C59.4127 7.58171 59.4026 7.73307 59.3622 7.89453C59.3218 8.03581 59.2209 8.13672 59.0595 8.19727C58.898 8.23763 58.8072 8.32845 58.787 8.46973C58.787 8.611 58.8375 8.74219 58.9384 8.86328C59.0595 8.96419 59.12 9.09538 59.12 9.25684C59.0998 9.49902 59.009 9.77148 58.8476 10.0742C58.7063 10.377 58.6155 10.6898 58.5751 11.0127C58.5347 11.3154 58.4641 11.6081 58.3632 11.8906C58.2825 12.1732 58.1916 12.4557 58.0907 12.7383C58.01 13.0208 57.9293 13.3135 57.8485 13.6162C57.788 13.8988 57.7678 14.1914 57.788 14.4941C58.1916 14.5749 58.6256 14.6051 59.0897 14.585C59.5539 14.5648 60.008 14.5042 60.4521 14.4033C60.8961 14.3024 61.3098 14.1712 61.6933 14.0098C62.0969 13.8281 62.4299 13.6162 62.6923 13.374Z" fill="#9746FF"/>
<path d="M91.6979 1.7793C92.1822 2.20312 92.6767 2.60677 93.1813 2.99023C93.706 3.35352 94.1399 3.78743 94.483 4.29199C94.5638 4.3929 94.6243 4.50391 94.6647 4.625C94.7252 4.74609 94.7959 4.8571 94.8766 4.95801C95.038 5.18001 95.2096 5.4222 95.3912 5.68457C95.5729 5.94694 95.7041 6.24967 95.7848 6.59277C95.8251 6.83496 95.8251 7.09733 95.7848 7.37988C95.7444 7.64225 95.7444 7.91471 95.7848 8.19727C95.805 8.31836 95.8655 8.41927 95.9664 8.5C96.0875 8.56055 96.1682 8.67155 96.2086 8.83301C96.2692 9.11556 96.249 9.39811 96.1481 9.68066C96.0673 9.96322 96.0472 10.2861 96.0875 10.6494C96.0875 10.8714 96.138 11.0632 96.2389 11.2246C96.36 11.3659 96.4205 11.5273 96.4205 11.709C96.4407 11.9915 96.4104 12.2741 96.3297 12.5566C96.249 12.819 96.1884 13.0814 96.1481 13.3438C95.9866 14.1712 95.8352 14.8776 95.694 15.4629C95.5729 16.0482 95.3509 16.6436 95.0279 17.249C94.8463 17.5316 94.6848 17.8242 94.5436 18.127C94.4225 18.4297 94.2812 18.7021 94.1197 18.9443C93.6959 19.5902 93.2216 20.1855 92.6969 20.7305C92.1722 21.2552 91.6979 21.79 91.274 22.335C90.5071 22.6781 89.7806 23.0111 89.0944 23.334C88.4082 23.6569 87.6311 23.9596 86.7633 24.2422C86.5615 24.3027 86.3597 24.3734 86.1578 24.4541C85.9762 24.5348 85.7744 24.6055 85.5524 24.666C85.29 24.7266 85.0175 24.7669 84.735 24.7871C84.4524 24.8073 84.1699 24.8376 83.8873 24.8779C83.6855 24.9183 83.4837 24.9688 83.2819 25.0293C83.08 25.11 82.8681 25.1605 82.6461 25.1807C82.4241 25.221 82.2122 25.2109 82.0104 25.1504C81.8287 25.0898 81.6269 25.0394 81.4049 24.999C81.2434 24.9587 81.0618 24.9486 80.86 24.9688C80.6783 25.0091 80.5068 25.0192 80.3453 24.999C80.2444 24.9788 80.1435 24.9284 80.0426 24.8477C79.9417 24.7871 79.8206 24.7266 79.6793 24.666C79.5582 24.6055 79.4169 24.5651 79.2555 24.5449C79.1142 24.5247 78.983 24.4945 78.8619 24.4541C78.7005 24.3936 78.5491 24.3128 78.4078 24.2119C78.2666 24.1312 78.1152 24.0706 77.9537 24.0303C77.8326 23.9899 77.7115 23.9697 77.5904 23.9697C77.4694 23.9697 77.3584 23.9495 77.2574 23.9092C77.1162 23.8688 76.985 23.7881 76.8639 23.667C76.763 23.5257 76.6318 23.4046 76.4703 23.3037C76.3089 23.2028 76.1474 23.1221 75.986 23.0615C75.8245 23.001 75.6933 22.9303 75.5924 22.8496C75.3098 22.6478 75.0172 22.3652 74.7145 22.002C74.4319 21.6387 74.1796 21.2552 73.9576 20.8516C73.776 20.4883 73.554 20.1149 73.2916 19.7314C73.0494 19.348 72.8577 18.9443 72.7164 18.5205C72.6761 18.2783 72.6458 18.016 72.6256 17.7334C72.6054 17.4307 72.5751 17.1279 72.5348 16.8252C72.4944 16.2399 72.4742 15.6344 72.4742 15.0088C72.4944 14.3831 72.5651 13.6969 72.6861 12.9502C72.7265 12.7282 72.7972 12.5163 72.8981 12.3145C72.999 12.0924 73.0999 11.8704 73.2008 11.6484C73.2815 11.4264 73.3522 11.2044 73.4127 10.9824C73.4934 10.7604 73.5742 10.5485 73.6549 10.3467C73.7558 10.165 73.8971 9.99349 74.0787 9.83203C74.2604 9.67057 74.3815 9.47884 74.442 9.25684C74.5026 9.03483 74.4925 8.83301 74.4117 8.65137C74.3512 8.46973 74.3411 8.25781 74.3815 8.01562C74.442 7.53125 74.664 7.10742 75.0475 6.74414C75.4511 6.36068 75.8245 5.96712 76.1676 5.56348C76.6116 5.0791 77.0354 4.67546 77.4391 4.35254C77.8427 4.02962 78.317 3.66634 78.8619 3.2627C78.9427 3.22233 79.0436 3.18197 79.1647 3.1416C79.3059 3.08105 79.4371 3.01042 79.5582 2.92969C79.6591 2.84896 79.76 2.76823 79.861 2.6875C79.9619 2.58659 80.0527 2.51595 80.1334 2.47559C80.3151 2.43522 80.4967 2.43522 80.6783 2.47559C80.8802 2.49577 81.0719 2.48568 81.2535 2.44531C81.415 2.40495 81.5664 2.32422 81.7076 2.20312C81.8691 2.08203 82.0205 1.95085 82.1617 1.80957C82.303 1.66829 82.4443 1.52702 82.5856 1.38574C82.7268 1.24447 82.8681 1.13346 83.0094 1.05273C83.0699 1.01237 83.1406 0.992188 83.2213 0.992188C83.3222 0.972005 83.413 0.941732 83.4938 0.901367C84.0589 0.65918 84.6542 0.578451 85.2799 0.65918C85.9257 0.719727 86.5716 0.770182 87.2174 0.810547C87.7018 0.850911 88.1861 0.891276 88.6705 0.931641C89.1751 0.951823 89.6393 1.02246 90.0631 1.14355C90.3457 1.22428 90.6181 1.34538 90.8805 1.50684C91.1429 1.64811 91.4153 1.73893 91.6979 1.7793ZM86.3697 20.5488C86.511 20.4076 86.6523 20.2259 86.7936 20.0039C86.9348 19.7617 87.0862 19.5296 87.2477 19.3076C87.5706 18.7627 87.8733 18.2077 88.1559 17.6426C88.4384 17.0573 88.721 16.472 89.0035 15.8867C89.2659 15.3014 89.4879 14.6859 89.6695 14.04C89.8714 13.374 90.0833 12.708 90.3053 12.042C90.386 11.82 90.5071 11.5778 90.6686 11.3154C90.8502 11.0531 90.941 10.8311 90.941 10.6494C90.9612 10.5081 90.9209 10.377 90.8199 10.2559C90.7392 10.1146 90.6888 9.99349 90.6686 9.89258C90.6686 9.7513 90.6686 9.63021 90.6686 9.5293C90.6888 9.4082 90.6888 9.28711 90.6686 9.16602C90.6686 9.04492 90.6484 8.93392 90.608 8.83301C90.5677 8.7321 90.5273 8.63118 90.4869 8.53027C90.4466 8.34863 90.4163 8.1569 90.3961 7.95508C90.3759 7.75326 90.3658 7.56152 90.3658 7.37988C90.3658 7.21842 90.3759 7.06706 90.3961 6.92578C90.4163 6.76432 90.4163 6.60286 90.3961 6.44141C90.2952 5.95703 90.0833 5.54329 89.7604 5.2002C89.4375 4.83691 89.1145 4.52409 88.7916 4.26172C88.6907 4.18099 88.61 4.10026 88.5494 4.01953C88.4889 3.91862 88.4182 3.84798 88.3375 3.80762C88.1962 3.76725 88.0348 3.73698 87.8531 3.7168C87.6917 3.69661 87.5504 3.69661 87.4293 3.7168C86.9853 3.75716 86.5817 3.85807 86.2184 4.01953C85.8753 4.16081 85.4817 4.2819 85.0377 4.38281C84.3919 4.80664 83.6956 5.29102 82.9488 5.83594C82.2223 6.38086 81.6269 6.99642 81.1627 7.68262C81.1022 7.78353 81.0517 7.88444 81.0113 7.98535C80.9912 8.08626 80.9508 8.18717 80.8903 8.28809C80.7893 8.44954 80.6783 8.59082 80.5572 8.71191C80.4361 8.81283 80.3251 8.94401 80.2242 9.10547C80.0426 9.4082 79.861 9.74121 79.6793 10.1045C79.4977 10.4678 79.3766 10.8008 79.316 11.1035C79.2151 11.5072 79.1546 11.9411 79.1344 12.4053C79.1142 12.8695 79.0738 13.3337 79.0133 13.7979C78.9528 14.363 78.8821 14.918 78.8014 15.4629C78.7207 15.9876 78.7005 16.4821 78.7408 16.9463C78.7408 17.0674 78.761 17.1986 78.8014 17.3398C78.8417 17.4609 78.872 17.5921 78.8922 17.7334C78.9528 18.2581 79.0133 18.7021 79.0738 19.0654C79.1344 19.4287 79.2959 19.7718 79.5582 20.0947C79.6591 20.2158 79.8004 20.3268 79.982 20.4277C80.1637 20.5085 80.3151 20.6094 80.4361 20.7305C80.5371 20.8314 80.6077 20.9323 80.6481 21.0332C80.7086 21.1341 80.7893 21.2249 80.8903 21.3057C81.5563 21.8304 82.5048 22.0928 83.736 22.0928C84.1194 21.8304 84.5634 21.5983 85.068 21.3965C85.5927 21.1947 86.0266 20.9121 86.3697 20.5488Z" fill="#9746FF"/>
<path d="M126.698 0.901367C126.516 1.24447 126.294 1.51693 126.032 1.71875C125.789 1.90039 125.527 2.09212 125.244 2.29395C125.002 2.51595 124.73 2.71777 124.427 2.89941C124.124 3.06087 123.862 3.2526 123.64 3.47461C123.216 3.9388 122.843 4.514 122.52 5.2002C122.217 5.86621 121.924 6.53223 121.642 7.19824C121.561 7.3597 121.45 7.52116 121.309 7.68262C121.188 7.84408 121.087 8.01562 121.006 8.19727C120.784 8.74219 120.592 9.31738 120.431 9.92285C120.29 10.5283 120.148 11.1439 120.007 11.7695C119.886 12.375 119.755 12.9906 119.614 13.6162C119.472 14.2419 119.301 14.8473 119.099 15.4326C118.998 15.5335 118.877 15.6243 118.736 15.7051C118.594 15.7656 118.493 15.8665 118.433 16.0078C118.453 16.1087 118.493 16.2096 118.554 16.3105C118.635 16.3913 118.685 16.4922 118.705 16.6133C118.726 16.7747 118.695 16.9362 118.615 17.0977C118.554 17.2591 118.504 17.4408 118.463 17.6426C118.362 18.2279 118.201 18.8737 117.979 19.5801C117.777 20.2663 117.515 20.8112 117.192 21.2148C117.01 21.8203 116.839 22.4359 116.677 23.0615C116.536 23.6872 116.294 24.2321 115.951 24.6963C115.769 24.7568 115.597 24.8376 115.436 24.9385C115.295 25.0394 115.113 25.0898 114.891 25.0898C114.79 25.0898 114.679 25.0596 114.558 24.999C114.457 24.9385 114.336 24.888 114.195 24.8477C114.033 24.8073 113.852 24.7669 113.65 24.7266C113.448 24.7064 113.256 24.666 113.075 24.6055C112.893 24.5651 112.711 24.5146 112.53 24.4541C112.368 24.3936 112.207 24.3633 112.045 24.3633C111.864 24.3633 111.621 24.3633 111.319 24.3633C111.016 24.3633 110.784 24.333 110.622 24.2725C110.562 24.0706 110.471 23.889 110.35 23.7275C110.249 23.5459 110.158 23.3542 110.077 23.1523C109.997 22.9707 109.906 22.7689 109.805 22.5469C109.704 22.3249 109.644 22.1029 109.623 21.8809C109.603 21.7799 109.613 21.6689 109.654 21.5479C109.694 21.4268 109.704 21.3158 109.684 21.2148C109.644 21.0534 109.563 20.8919 109.442 20.7305C109.321 20.569 109.24 20.4076 109.2 20.2461C109.179 20.1452 109.179 20.0443 109.2 19.9434C109.22 19.8223 109.22 19.7113 109.2 19.6104C109.179 19.4691 109.129 19.3581 109.048 19.2773C108.988 19.1966 108.937 19.0957 108.897 18.9746C108.856 18.9141 108.846 18.8535 108.867 18.793C108.887 18.7122 108.887 18.6416 108.867 18.5811C108.826 18.4398 108.756 18.3086 108.655 18.1875C108.574 18.0462 108.513 17.915 108.473 17.7939C108.392 17.471 108.352 17.138 108.352 16.7949C108.372 16.4316 108.362 16.0785 108.322 15.7354C108.281 15.4528 108.211 15.1803 108.11 14.918C108.029 14.6354 107.989 14.3428 107.989 14.04C107.989 13.8786 108.019 13.7373 108.079 13.6162C108.14 13.4951 108.17 13.3639 108.17 13.2227C108.19 13.0612 108.17 12.9199 108.11 12.7988C108.049 12.6777 108.009 12.5365 107.989 12.375C107.928 12.2337 107.827 12.1328 107.686 12.0723C107.565 12.0117 107.444 11.9411 107.323 11.8604C107.161 11.2751 106.939 10.609 106.657 9.8623C106.374 9.09538 106.152 8.40918 105.991 7.80371C105.991 7.76335 105.97 7.82389 105.93 7.98535C105.91 8.12663 105.869 8.30827 105.809 8.53027C105.769 8.75228 105.708 8.98438 105.627 9.22656C105.547 9.46875 105.446 9.66048 105.325 9.80176C105.486 10.0843 105.496 10.4274 105.355 10.8311C105.214 11.2347 105.092 11.6383 104.992 12.042C104.85 12.6273 104.719 13.2227 104.598 13.8281C104.477 14.4134 104.315 14.9987 104.114 15.584C104.073 15.7253 104.023 15.8464 103.962 15.9473C103.902 16.0482 103.851 16.1592 103.811 16.2803C103.75 16.4821 103.72 16.694 103.72 16.916C103.72 17.138 103.7 17.36 103.66 17.582C103.619 17.804 103.579 18.016 103.538 18.2178C103.518 18.4196 103.488 18.6214 103.448 18.8232C103.387 19.1865 103.316 19.5902 103.236 20.0342C103.175 20.4782 103.084 20.9121 102.963 21.3359C102.862 21.7396 102.721 22.113 102.539 22.4561C102.358 22.779 102.126 23.0111 101.843 23.1523C101.621 23.2936 101.419 23.3441 101.238 23.3037C101.076 23.2633 100.905 23.1826 100.723 23.0615C100.622 23.0817 100.562 23.1523 100.541 23.2734C100.521 23.3743 100.471 23.445 100.39 23.4854C100.107 23.4652 99.8753 23.5156 99.6937 23.6367C99.5121 23.7376 99.3102 23.8184 99.0882 23.8789C99.0277 23.8991 98.957 23.9092 98.8763 23.9092C98.8158 23.889 98.7552 23.8991 98.6947 23.9395C98.513 24 98.3516 24.0807 98.2103 24.1816C98.069 24.2826 97.9277 24.3734 97.7865 24.4541C97.6654 24.555 97.5342 24.6357 97.3929 24.6963C97.2516 24.7568 97.1003 24.7669 96.9388 24.7266C96.6966 24.666 96.5251 24.5348 96.4242 24.333C96.3031 24.1312 96.1618 23.9495 96.0003 23.7881C96.0407 23.5055 96.1113 23.1927 96.2122 22.8496C96.293 22.5065 96.3939 22.1634 96.515 21.8203C96.6159 21.457 96.7269 21.1139 96.848 20.791C96.9691 20.4479 97.0801 20.1452 97.181 19.8828C97.2415 19.6608 97.3122 19.4489 97.3929 19.2471C97.4535 19.0452 97.514 18.8333 97.5746 18.6113C97.6351 18.4095 97.7158 18.2178 97.8167 18.0361C97.9177 17.8343 97.9883 17.6325 98.0287 17.4307C98.069 17.2087 98.0791 16.9967 98.0589 16.7949C98.0387 16.5729 98.0387 16.3509 98.0589 16.1289C98.0993 15.9271 98.1699 15.7051 98.2708 15.4629C98.3718 15.2207 98.4525 14.9886 98.513 14.7666C98.7149 14.0804 98.9268 13.4245 99.1488 12.7988C99.3708 12.153 99.6836 11.5879 100.087 11.1035C100.087 10.821 100.128 10.5586 100.208 10.3164C100.289 10.0742 100.37 9.84212 100.451 9.62012C100.531 9.39811 100.582 9.1862 100.602 8.98438C100.622 8.76237 100.572 8.53027 100.451 8.28809C100.531 7.9248 100.632 7.58171 100.753 7.25879C100.895 6.91569 101.006 6.55241 101.086 6.16895C101.106 6.06803 101.106 5.95703 101.086 5.83594C101.086 5.71484 101.106 5.60384 101.147 5.50293C101.187 5.32129 101.258 5.12956 101.359 4.92773C101.48 4.70573 101.601 4.49382 101.722 4.29199C101.863 4.06999 101.984 3.85807 102.085 3.65625C102.206 3.45443 102.287 3.27279 102.327 3.11133C102.549 3.07096 102.761 3.0306 102.963 2.99023C103.165 2.92969 103.407 2.89941 103.69 2.89941C103.811 2.89941 103.932 2.9196 104.053 2.95996C104.174 2.98014 104.295 2.98014 104.416 2.95996C104.638 2.9196 104.8 2.81868 104.901 2.65723C105.022 2.49577 105.163 2.37467 105.325 2.29395C105.607 2.25358 105.88 2.2334 106.142 2.2334C106.424 2.21322 106.697 2.16276 106.959 2.08203C107.08 2.04167 107.232 1.99121 107.413 1.93066C107.615 1.87012 107.777 1.83984 107.898 1.83984C108.14 1.83984 108.332 1.93066 108.473 2.1123C108.634 2.29395 108.766 2.51595 108.867 2.77832C108.967 3.02051 109.058 3.27279 109.139 3.53516C109.22 3.77734 109.331 3.96908 109.472 4.11035C109.472 4.71582 109.502 5.27083 109.563 5.77539C109.623 6.25977 109.674 6.82487 109.714 7.4707C109.795 8.1569 109.906 8.79264 110.047 9.37793C110.188 9.94303 110.34 10.5283 110.501 11.1338C110.562 11.3962 110.602 11.6585 110.622 11.9209C110.663 12.1833 110.733 12.4255 110.834 12.6475C110.996 13.0511 111.157 13.4245 111.319 13.7676C111.5 14.1107 111.611 14.484 111.652 14.8877C111.712 15.3519 111.732 15.7959 111.712 16.2197C111.692 16.6234 111.732 17.027 111.833 17.4307C111.934 17.7536 112.045 18.016 112.166 18.2178C112.287 18.4196 112.459 18.6517 112.681 18.9141C112.903 18.6315 113.034 18.3288 113.075 18.0059C113.115 17.6829 113.155 17.36 113.196 17.0371C113.256 16.694 113.337 16.3711 113.438 16.0684C113.539 15.7454 113.64 15.4124 113.741 15.0693C113.841 14.585 113.973 14.0804 114.134 13.5557C114.316 13.0309 114.497 12.5566 114.679 12.1328C114.719 12.0117 114.79 11.8805 114.891 11.7393C114.992 11.598 115.083 11.4567 115.163 11.3154C115.285 11.0934 115.305 10.8411 115.224 10.5586C115.163 10.2559 115.153 9.96322 115.194 9.68066C115.234 9.47884 115.285 9.26693 115.345 9.04492C115.426 8.80273 115.496 8.56055 115.557 8.31836C115.698 7.73307 115.779 7.10742 115.799 6.44141C115.84 5.77539 115.93 5.2002 116.072 4.71582C116.132 4.55436 116.213 4.33236 116.314 4.0498C116.415 3.76725 116.455 3.52507 116.435 3.32324C116.435 3.16178 116.374 3.04069 116.253 2.95996C116.152 2.87923 116.102 2.75814 116.102 2.59668C116.102 2.43522 116.173 2.29395 116.314 2.17285C116.475 2.05176 116.657 1.95085 116.859 1.87012C117.081 1.78939 117.303 1.72884 117.525 1.68848C117.767 1.64811 117.969 1.62793 118.13 1.62793C118.312 1.62793 118.473 1.64811 118.615 1.68848C118.776 1.72884 118.927 1.76921 119.069 1.80957C119.21 1.84993 119.361 1.8903 119.523 1.93066C119.704 1.95085 119.906 1.95085 120.128 1.93066C120.471 1.8903 120.855 1.84993 121.279 1.80957C121.702 1.74902 122.116 1.70866 122.52 1.68848C122.722 1.66829 122.913 1.6582 123.095 1.6582C123.297 1.63802 123.468 1.60775 123.61 1.56738C123.812 1.50684 124.013 1.44629 124.215 1.38574C124.417 1.30501 124.659 1.24447 124.942 1.2041C125.184 1.16374 125.416 1.11328 125.638 1.05273C125.88 0.972005 126.082 0.901367 126.243 0.84082C126.304 0.800456 126.365 0.780273 126.425 0.780273C126.506 0.760091 126.597 0.800456 126.698 0.901367Z" fill="#9746FF"/>
<path d="M127.398 23.2432C126.994 23.2432 126.691 23.334 126.489 23.5156C126.308 23.6771 126.176 23.889 126.096 24.1514C125.854 24.0908 125.571 24.0807 125.248 24.1211C124.945 24.1615 124.633 24.2018 124.31 24.2422C124.007 24.2826 123.704 24.3027 123.401 24.3027C123.119 24.3229 122.877 24.2725 122.675 24.1514C122.574 24.0908 122.493 24.0101 122.433 23.9092C122.372 23.7881 122.301 23.6771 122.221 23.5762C122.14 23.4551 122.059 23.3441 121.979 23.2432C121.878 23.1423 121.817 23.0413 121.797 22.9404C121.757 22.8193 121.787 22.6478 121.888 22.4258C121.989 22.1836 122.079 22.012 122.16 21.9111C122.241 21.8506 122.332 21.8001 122.433 21.7598C122.554 21.7194 122.665 21.6589 122.766 21.5781C123.048 21.3561 123.25 21.0837 123.371 20.7607C123.512 20.4176 123.634 20.1452 123.734 19.9434C123.876 19.8424 124.037 19.7415 124.219 19.6406C124.421 19.5195 124.501 19.3682 124.461 19.1865C124.279 19.0856 124.067 19.0452 123.825 19.0654C123.583 19.0654 123.341 19.0553 123.099 19.0352C122.695 19.0352 122.291 19.0049 121.888 18.9443C121.484 18.8838 121.121 18.8333 120.798 18.793C120.273 18.6921 119.819 18.4499 119.436 18.0664C119.032 17.6829 118.86 17.1986 118.921 16.6133C119.062 16.5527 119.224 16.5225 119.405 16.5225C119.567 16.5225 119.748 16.5326 119.95 16.5527C120.132 16.5729 120.324 16.5931 120.525 16.6133C120.707 16.6133 120.879 16.583 121.04 16.5225C121.222 16.6436 121.393 16.7041 121.555 16.7041C121.696 16.7041 121.837 16.6738 121.979 16.6133C122.1 16.5527 122.221 16.4922 122.342 16.4316C122.463 16.3509 122.574 16.3005 122.675 16.2803C122.776 16.2601 122.867 16.2601 122.947 16.2803C123.028 16.3005 123.119 16.3105 123.22 16.3105C123.381 16.3105 123.543 16.2904 123.704 16.25C123.866 16.1895 124.057 16.139 124.279 16.0986C124.582 16.0583 124.895 16.0381 125.218 16.0381C125.541 16.0179 125.813 15.9574 126.035 15.8564C126.176 15.7959 126.338 15.695 126.52 15.5537C126.701 15.3923 126.832 15.251 126.913 15.1299C126.954 15.029 126.964 14.9382 126.943 14.8574C126.943 14.7565 126.964 14.6556 127.004 14.5547C127.105 14.2116 127.276 13.9089 127.519 13.6465C127.781 13.3841 127.993 13.0915 128.154 12.7686C128.215 12.6071 128.255 12.486 128.275 12.4053C128.316 12.3245 128.346 12.2539 128.366 12.1934C128.386 12.1328 128.407 12.0622 128.427 11.9814C128.467 11.9007 128.538 11.7796 128.639 11.6182C128.82 11.3356 129.002 11.0632 129.184 10.8008C129.385 10.5384 129.618 10.2861 129.88 10.0439C129.88 9.92285 129.9 9.82194 129.941 9.74121C129.981 9.6403 130.021 9.53939 130.062 9.43848C130.607 9.21647 131.051 8.92383 131.394 8.56055C131.737 8.19727 132.08 7.8138 132.423 7.41016C132.403 7.20833 132.443 7.06706 132.544 6.98633C132.645 6.88542 132.695 6.73405 132.695 6.53223C132.695 6.43132 132.655 6.32031 132.574 6.19922C132.514 6.05794 132.483 5.91667 132.483 5.77539C132.483 5.61393 132.544 5.45247 132.665 5.29102C132.806 5.10938 132.927 4.94792 133.028 4.80664C133.19 4.64518 133.311 4.48372 133.392 4.32227C133.493 4.16081 133.594 4.00944 133.694 3.86816C133.856 3.68652 134.017 3.52507 134.179 3.38379C134.36 3.24251 134.532 3.07096 134.693 2.86914C134.774 2.74805 134.835 2.61686 134.875 2.47559C134.936 2.31413 135.026 2.19303 135.148 2.1123C135.329 1.99121 135.581 1.92057 135.904 1.90039C136.227 1.88021 136.55 1.86003 136.873 1.83984C137.257 1.81966 137.67 1.7793 138.114 1.71875C138.579 1.63802 139.033 1.55729 139.477 1.47656C139.941 1.39583 140.385 1.3252 140.809 1.26465C141.253 1.18392 141.656 1.13346 142.02 1.11328C142.383 1.07292 142.726 1.06283 143.049 1.08301C143.392 1.10319 143.664 1.07292 143.866 0.992188C144.149 1.23438 144.431 1.47656 144.714 1.71875C145.017 1.94076 145.299 2.18294 145.562 2.44531C145.642 2.84896 145.713 3.22233 145.774 3.56543C145.834 3.90853 145.844 4.25163 145.804 4.59473C145.763 4.75618 145.693 4.90755 145.592 5.04883C145.511 5.1901 145.481 5.35156 145.501 5.5332C145.501 5.83594 145.592 6.13867 145.774 6.44141C145.955 6.72396 146.086 7.03678 146.167 7.37988C146.187 7.54134 146.157 7.7028 146.076 7.86426C146.016 8.00553 145.975 8.1569 145.955 8.31836C145.935 8.47982 145.945 8.66146 145.985 8.86328C146.026 9.04492 146.066 9.23665 146.107 9.43848C146.107 9.68066 146.096 9.92285 146.076 10.165C146.056 10.4072 146.066 10.6595 146.107 10.9219C146.147 11.1842 146.197 11.4567 146.258 11.7393C146.318 12.0016 146.339 12.2741 146.318 12.5566C146.278 12.8392 146.218 13.1016 146.137 13.3438C146.076 13.5859 146.046 13.8382 146.046 14.1006C146.026 14.4639 146.046 14.8171 146.107 15.1602C146.167 15.4831 146.147 15.8161 146.046 16.1592C146.207 16.361 146.288 16.5628 146.288 16.7646C146.308 16.9665 146.298 17.1683 146.258 17.3701C146.218 17.5719 146.177 17.7839 146.137 18.0059C146.096 18.2077 146.117 18.4196 146.197 18.6416C146.238 18.7829 146.318 18.9141 146.44 19.0352C146.561 19.1361 146.641 19.2673 146.682 19.4287C146.742 19.6305 146.773 19.8828 146.773 20.1855C146.793 20.4681 146.803 20.7406 146.803 21.0029C146.823 21.6488 146.762 22.224 146.621 22.7285C146.5 23.2331 146.429 23.778 146.409 24.3633C146.409 24.6257 146.399 24.9183 146.379 25.2412C146.379 25.5641 146.329 25.8164 146.228 25.998C146.127 26.1191 145.965 26.2402 145.743 26.3613C145.521 26.5026 145.33 26.5833 145.168 26.6035C144.865 26.6237 144.512 26.543 144.108 26.3613C143.725 26.1797 143.432 25.988 143.231 25.7861C143.049 25.5843 142.877 25.3623 142.716 25.1201C142.575 24.8779 142.423 24.6257 142.262 24.3633C142.121 24.1009 141.969 23.8587 141.808 23.6367C141.646 23.3945 141.465 23.1927 141.263 23.0312C141.162 22.9707 141.051 22.9102 140.93 22.8496C140.809 22.7891 140.718 22.7184 140.657 22.6377C140.536 22.4359 140.466 22.2139 140.445 21.9717C140.445 21.7093 140.455 21.4469 140.476 21.1846C140.516 20.902 140.546 20.6296 140.566 20.3672C140.607 20.1048 140.597 19.8727 140.536 19.6709C140.476 19.4691 140.395 19.3177 140.294 19.2168C140.193 19.0957 140.062 19.015 139.9 18.9746C139.759 18.9141 139.588 18.8838 139.386 18.8838C139.204 18.8636 138.982 18.8434 138.72 18.8232C137.771 18.7627 136.792 18.7021 135.783 18.6416C134.774 18.5811 133.745 18.5609 132.695 18.5811C132.473 18.5811 132.312 18.5911 132.211 18.6113C132.11 18.6315 132.019 18.6517 131.939 18.6719C131.858 18.6719 131.777 18.682 131.696 18.7021C131.616 18.7223 131.484 18.7324 131.303 18.7324C130.899 18.7526 130.536 18.7829 130.213 18.8232C129.89 18.8434 129.607 18.9443 129.365 19.126C129.224 19.2269 129.073 19.4287 128.911 19.7314C128.75 20.0342 128.629 20.2663 128.548 20.4277C128.447 20.6699 128.356 20.9222 128.275 21.1846C128.215 21.4469 128.144 21.7093 128.064 21.9717C128.003 22.2139 127.922 22.446 127.821 22.668C127.72 22.89 127.579 23.0817 127.398 23.2432ZM135.087 15.251C135.773 15.2308 136.429 15.2207 137.055 15.2207C137.701 15.2005 138.306 15.1702 138.871 15.1299C138.952 15.0895 139.023 15.0592 139.083 15.0391C139.164 15.0189 139.285 15.029 139.446 15.0693C139.446 14.9684 139.497 14.918 139.598 14.918C139.699 14.8978 139.779 14.8675 139.84 14.8271C139.921 14.6859 139.961 14.5749 139.961 14.4941C139.961 14.3932 139.941 14.3125 139.9 14.252C139.88 14.1712 139.84 14.0905 139.779 14.0098C139.739 13.9089 139.719 13.7777 139.719 13.6162C139.719 13.4548 139.739 13.2933 139.779 13.1318C139.84 12.9502 139.88 12.7686 139.9 12.5869C139.921 12.4456 139.9 12.2943 139.84 12.1328C139.8 11.9714 139.789 11.8099 139.81 11.6484C139.83 11.5072 139.89 11.3861 139.991 11.2852C140.092 11.1641 140.143 11.0329 140.143 10.8916C140.143 10.8109 140.122 10.7201 140.082 10.6191C140.062 10.5182 140.042 10.4173 140.022 10.3164C140.001 10.1751 139.991 10.0339 139.991 9.89258C140.011 9.7513 140.001 9.63021 139.961 9.5293C139.921 9.36784 139.82 9.21647 139.658 9.0752C139.497 8.93392 139.396 8.78255 139.356 8.62109C139.295 8.41927 139.285 8.19727 139.325 7.95508C139.386 7.69271 139.416 7.44043 139.416 7.19824C139.396 6.85514 139.366 6.54232 139.325 6.25977C139.285 5.97721 139.184 5.69466 139.023 5.41211C138.801 5.29102 138.629 5.25065 138.508 5.29102C138.407 5.3112 138.316 5.38184 138.235 5.50293C138.175 5.60384 138.114 5.72493 138.054 5.86621C138.013 6.00749 137.933 6.12858 137.812 6.22949C137.267 6.71387 136.843 7.20833 136.54 7.71289C136.237 8.19727 135.864 8.7321 135.42 9.31738C135.238 9.53939 135.047 9.76139 134.845 9.9834C134.663 10.2054 134.492 10.4476 134.33 10.71C134.189 10.9723 134.078 11.2448 133.997 11.5273C133.916 11.8099 133.896 12.1227 133.937 12.4658C133.836 12.6273 133.745 12.7484 133.664 12.8291C133.604 12.8896 133.533 12.9502 133.452 13.0107C133.371 13.0713 133.281 13.1419 133.18 13.2227C133.099 13.3034 132.998 13.4144 132.877 13.5557C132.655 13.8382 132.413 14.1309 132.15 14.4336C131.888 14.7161 131.717 15.029 131.636 15.3721C131.999 15.473 132.312 15.5234 132.574 15.5234C132.837 15.5234 133.089 15.5133 133.331 15.4932C133.594 15.4528 133.856 15.4124 134.118 15.3721C134.401 15.3115 134.724 15.2712 135.087 15.251Z" fill="#9746FF"/>
<path d="M164.335 15.9473C164.779 16.2904 165.233 16.6335 165.697 16.9766C166.181 17.3197 166.565 17.7334 166.847 18.2178C166.787 18.3994 166.777 18.5508 166.817 18.6719C166.858 18.7728 166.918 18.8737 166.999 18.9746C167.1 19.0553 167.191 19.1462 167.271 19.2471C167.372 19.3278 167.443 19.4388 167.483 19.5801C167.544 19.8424 167.524 20.1452 167.423 20.4883C167.322 20.8112 167.251 21.1341 167.211 21.457C167.17 21.6185 167.14 21.79 167.12 21.9717C167.12 22.1331 167.1 22.2946 167.059 22.4561C166.979 22.8799 166.918 23.2835 166.878 23.667C166.837 24.0505 166.888 24.4541 167.029 24.8779C167.13 25.2008 167.302 25.554 167.544 25.9375C167.806 26.3411 168.068 26.6035 168.331 26.7246C168.432 26.7852 168.512 26.8053 168.573 26.7852C168.634 26.7852 168.714 26.8053 168.815 26.8457C168.936 26.9062 169.027 26.9971 169.088 27.1182C169.168 27.2393 169.3 27.3301 169.481 27.3906C169.764 27.209 170.077 27.1585 170.42 27.2393C170.763 27.3402 171.106 27.3805 171.449 27.3604C171.55 27.3604 171.641 27.3301 171.721 27.2695C171.802 27.2292 171.883 27.209 171.964 27.209C172.428 27.1686 172.902 27.1283 173.387 27.0879C173.891 27.0475 174.375 26.9567 174.84 26.8154C175.062 26.7549 175.294 26.654 175.536 26.5127C175.778 26.3714 176.02 26.2301 176.262 26.0889C176.585 25.887 176.908 25.6751 177.231 25.4531C177.574 25.2311 177.958 25.1908 178.382 25.332C178.402 25.7155 178.341 26.0182 178.2 26.2402C178.059 26.4824 177.877 26.6842 177.655 26.8457C177.433 27.0273 177.201 27.1989 176.959 27.3604C176.717 27.5218 176.515 27.7035 176.353 27.9053C175.99 28.0062 175.697 28.1374 175.475 28.2988C175.253 28.4805 175.001 28.6621 174.719 28.8438C174.557 28.9245 174.396 28.985 174.234 29.0254C174.093 29.0658 173.952 29.1364 173.81 29.2373C173.649 29.318 173.508 29.429 173.387 29.5703C173.265 29.7116 173.134 29.8327 172.993 29.9336C172.831 30.0345 172.64 30.0951 172.418 30.1152C172.216 30.1556 172.024 30.196 171.843 30.2363C171.298 30.3978 170.722 30.529 170.117 30.6299C169.512 30.751 168.896 30.8216 168.27 30.8418C167.665 30.8822 167.059 30.8519 166.454 30.751C165.848 30.6702 165.273 30.5088 164.728 30.2666C164.426 30.1455 164.173 29.984 163.971 29.7822C163.79 29.6006 163.588 29.3988 163.366 29.1768C163.104 28.9548 162.821 28.6924 162.518 28.3896C162.236 28.1071 162.014 27.8245 161.852 27.542C161.792 27.3805 161.731 27.1888 161.671 26.9668C161.63 26.7448 161.58 26.5228 161.519 26.3008C161.459 26.0788 161.378 25.8265 161.277 25.5439C161.196 25.2816 161.156 24.999 161.156 24.6963C161.136 24.1917 161.176 23.667 161.277 23.1221C161.398 22.557 161.499 22.012 161.58 21.4873C161.681 20.9424 161.731 20.4277 161.731 19.9434C161.731 19.4388 161.63 18.9948 161.428 18.6113C161.368 18.4902 161.277 18.3792 161.156 18.2783C161.055 18.1572 160.954 18.026 160.853 17.8848C160.631 17.6022 160.389 17.3499 160.127 17.1279C159.864 16.8857 159.501 16.7344 159.037 16.6738C158.714 16.6335 158.351 16.6335 157.947 16.6738C157.543 16.694 157.251 16.7747 157.069 16.916C156.787 17.0775 156.625 17.3398 156.585 17.7031C156.565 18.0462 156.514 18.4095 156.433 18.793C156.332 19.2572 156.191 19.681 156.01 20.0645C155.848 20.4479 155.798 20.8818 155.858 21.3662C155.899 21.568 155.959 21.8102 156.04 22.0928C156.121 22.3753 156.201 22.5973 156.282 22.7588C156.343 22.9001 156.443 23.0716 156.585 23.2734C156.726 23.4753 156.746 23.6569 156.645 23.8184C156.524 23.9798 156.322 24.0404 156.04 24C155.757 23.9596 155.475 23.9294 155.192 23.9092C154.849 23.889 154.556 23.8789 154.314 23.8789C154.092 23.8587 153.88 23.8587 153.678 23.8789C153.477 23.8789 153.265 23.8991 153.043 23.9395C152.821 23.9596 152.548 23.9899 152.225 24.0303C152.064 24.0505 151.933 24.0706 151.832 24.0908C151.751 24.111 151.67 24.1312 151.59 24.1514C151.529 24.1917 151.458 24.222 151.378 24.2422C151.317 24.2826 151.216 24.3229 151.075 24.3633C150.954 24.4036 150.843 24.4541 150.742 24.5146C150.641 24.5954 150.54 24.6559 150.439 24.6963C150.096 24.7972 149.723 24.8577 149.319 24.8779C148.915 24.9183 148.532 24.9385 148.169 24.9385C147.826 24.9587 147.483 24.9486 147.139 24.9082C146.776 24.888 146.453 24.8275 146.171 24.7266C146.211 24.4844 146.322 24.3229 146.504 24.2422C146.685 24.1615 146.837 24.0505 146.958 23.9092C147.483 23.8083 148.017 23.5863 148.562 23.2432C149.087 22.8799 149.43 22.4359 149.592 21.9111C149.652 21.7295 149.692 21.5378 149.713 21.3359C149.733 21.1139 149.763 20.902 149.803 20.7002C149.904 20.1755 150.005 19.6406 150.106 19.0957C150.207 18.5508 150.338 18.0059 150.5 17.4609C150.54 17.36 150.591 17.2692 150.651 17.1885C150.712 17.1077 150.762 17.0169 150.803 16.916C150.924 16.5729 150.994 16.2197 151.014 15.8564C151.055 15.473 151.125 15.1097 151.226 14.7666C151.327 14.5042 151.428 14.262 151.529 14.04C151.63 13.7979 151.711 13.5557 151.771 13.3135C151.832 13.0511 151.882 12.7988 151.923 12.5566C151.983 12.3145 152.084 12.0924 152.225 11.8906C152.266 11.5475 152.306 11.2246 152.346 10.9219C152.387 10.6191 152.397 10.266 152.377 9.8623C152.599 9.59993 152.801 9.32747 152.982 9.04492C153.184 8.74219 153.315 8.389 153.376 7.98535C153.416 7.76335 153.406 7.55143 153.345 7.34961C153.305 7.14779 153.285 6.92578 153.285 6.68359C153.305 6.15885 153.345 5.69466 153.406 5.29102C153.487 4.86719 153.547 4.3929 153.588 3.86816C153.426 3.50488 153.174 3.2627 152.831 3.1416C152.508 3.00033 152.155 2.80859 151.771 2.56641C151.711 2.54622 151.63 2.50586 151.529 2.44531C151.428 2.38477 151.317 2.32422 151.196 2.26367C151.095 2.18294 151.004 2.10221 150.924 2.02148C150.863 1.94076 150.833 1.87012 150.833 1.80957C150.853 1.66829 150.934 1.55729 151.075 1.47656C151.236 1.37565 151.408 1.3151 151.59 1.29492C151.791 1.25456 151.993 1.24447 152.195 1.26465C152.397 1.26465 152.568 1.27474 152.71 1.29492C153.214 1.39583 153.699 1.49674 154.163 1.59766C154.627 1.69857 155.101 1.78939 155.586 1.87012C156.09 1.93066 156.615 1.97103 157.16 1.99121C157.725 2.01139 158.361 1.99121 159.067 1.93066C159.33 1.91048 159.552 1.88021 159.733 1.83984C159.935 1.7793 160.157 1.73893 160.399 1.71875C160.742 1.69857 161.075 1.66829 161.398 1.62793C161.741 1.56738 162.084 1.55729 162.428 1.59766C163.053 1.6582 163.608 1.6582 164.093 1.59766C164.577 1.51693 165.092 1.50684 165.637 1.56738C165.899 1.60775 166.141 1.68848 166.363 1.80957C166.605 1.91048 166.837 2.02148 167.059 2.14258C167.302 2.26367 167.534 2.37467 167.756 2.47559C167.998 2.55632 168.24 2.60677 168.482 2.62695C168.845 2.84896 169.189 3.13151 169.512 3.47461C169.855 3.81771 170.167 4.20117 170.45 4.625C170.672 4.9681 170.884 5.36165 171.086 5.80566C171.288 6.24967 171.439 6.62305 171.54 6.92578C171.681 7.28906 171.742 7.65234 171.721 8.01562C171.701 8.35872 171.651 8.69173 171.57 9.01465C171.409 9.59993 171.207 10.1247 170.965 10.5889C170.722 11.0531 170.45 11.4971 170.147 11.9209C169.865 12.3245 169.562 12.7383 169.239 13.1621C168.936 13.5658 168.654 13.9896 168.391 14.4336C168.23 14.4941 168.068 14.5345 167.907 14.5547C167.766 14.5547 167.624 14.585 167.483 14.6455C167.261 14.7464 167.069 14.8978 166.908 15.0996C166.747 15.2812 166.535 15.4124 166.272 15.4932C166.171 15.5335 166.06 15.5436 165.939 15.5234C165.838 15.5033 165.737 15.5033 165.637 15.5234C165.414 15.584 165.203 15.6647 165.001 15.7656C164.819 15.8464 164.597 15.9069 164.335 15.9473ZM162.549 13.374C162.872 12.9704 163.225 12.597 163.608 12.2539C163.992 11.8906 164.294 11.4769 164.516 11.0127C164.617 10.7907 164.698 10.5283 164.759 10.2256C164.839 9.90267 164.91 9.59993 164.97 9.31738C165.071 8.71191 165.081 8.17708 165.001 7.71289C164.92 7.2487 164.779 6.83496 164.577 6.47168C164.375 6.1084 164.123 5.79557 163.82 5.5332C163.517 5.27083 163.184 5.03874 162.821 4.83691C162.539 4.67546 162.246 4.50391 161.943 4.32227C161.661 4.12044 161.307 4.08008 160.884 4.20117C160.581 4.38281 160.329 4.67546 160.127 5.0791C159.945 5.48275 159.774 5.85612 159.612 6.19922C159.552 6.34049 159.481 6.48177 159.4 6.62305C159.34 6.76432 159.289 6.88542 159.249 6.98633C159.229 7.1276 159.229 7.27897 159.249 7.44043C159.269 7.58171 159.259 7.73307 159.219 7.89453C159.178 8.03581 159.077 8.13672 158.916 8.19727C158.754 8.23763 158.664 8.32845 158.643 8.46973C158.643 8.611 158.694 8.74219 158.795 8.86328C158.916 8.96419 158.976 9.09538 158.976 9.25684C158.956 9.49902 158.865 9.77148 158.704 10.0742C158.563 10.377 158.472 10.6898 158.431 11.0127C158.391 11.3154 158.32 11.6081 158.22 11.8906C158.139 12.1732 158.048 12.4557 157.947 12.7383C157.866 13.0208 157.786 13.3135 157.705 13.6162C157.644 13.8988 157.624 14.1914 157.644 14.4941C158.048 14.5749 158.482 14.6051 158.946 14.585C159.41 14.5648 159.864 14.5042 160.308 14.4033C160.752 14.3024 161.166 14.1712 161.55 14.0098C161.953 13.8281 162.286 13.6162 162.549 13.374Z" fill="#9746FF"/>
<path d="M181.443 24.1211C180.999 24 180.535 23.9495 180.05 23.9697C179.566 23.9899 179.092 23.9798 178.627 23.9395C178.405 23.8991 178.173 23.8385 177.931 23.7578C177.709 23.6771 177.477 23.6165 177.235 23.5762C176.266 23.3945 175.418 23.3542 174.692 23.4551C173.986 23.556 173.249 23.7275 172.482 23.9697C172.32 24.0303 172.159 24.0908 171.998 24.1514C171.816 24.2321 171.634 24.3027 171.453 24.3633C171.271 24.4238 171.089 24.4541 170.908 24.4541C170.706 24.4743 170.514 24.4339 170.333 24.333C170.393 24.0706 170.514 23.8486 170.696 23.667C170.857 23.4854 171.049 23.3138 171.271 23.1523C171.473 22.9707 171.675 22.779 171.876 22.5771C172.058 22.3753 172.189 22.1331 172.27 21.8506C172.331 21.6286 172.351 21.4167 172.331 21.2148C172.31 20.9928 172.32 20.7607 172.361 20.5186C172.401 20.1553 172.482 19.7516 172.603 19.3076C172.744 18.8434 172.886 18.4095 173.027 18.0059C173.168 17.582 173.299 17.1683 173.42 16.7646C173.542 16.3408 173.663 15.9473 173.784 15.584C173.864 15.3822 173.996 15.1904 174.177 15.0088C174.379 14.807 174.5 14.5547 174.541 14.252C174.561 14.0905 174.541 13.9391 174.48 13.7979C174.44 13.6364 174.43 13.5052 174.45 13.4043C174.47 13.263 174.52 13.1318 174.601 13.0107C174.682 12.8896 174.742 12.7585 174.783 12.6172C174.823 12.5163 174.853 12.4053 174.874 12.2842C174.894 12.1631 174.924 12.0521 174.964 11.9512C175.065 11.5879 175.166 11.1842 175.267 10.7402C175.368 10.276 175.469 9.85221 175.57 9.46875C175.671 9.12565 175.802 8.81283 175.963 8.53027C176.145 8.24772 176.266 7.95508 176.327 7.65234C176.327 7.51107 176.276 7.42025 176.175 7.37988C176.095 7.31934 176.034 7.21842 175.994 7.07715C176.095 6.85514 176.135 6.5625 176.115 6.19922C176.095 5.81576 176.095 5.47266 176.115 5.16992C176.155 4.80664 176.195 4.49382 176.236 4.23145C176.296 3.94889 176.256 3.65625 176.115 3.35352C176.014 3.13151 175.883 2.92969 175.721 2.74805C175.56 2.56641 175.509 2.31413 175.57 1.99121C175.812 1.93066 176.044 1.8903 176.266 1.87012C176.508 1.82975 176.771 1.81966 177.053 1.83984C177.195 1.86003 177.326 1.90039 177.447 1.96094C177.568 2.02148 177.709 2.07194 177.871 2.1123C178.335 2.17285 178.789 2.18294 179.233 2.14258C179.697 2.08203 180.141 2.05176 180.565 2.05176C180.989 2.05176 181.302 2.06185 181.503 2.08203C181.705 2.10221 181.988 2.09212 182.351 2.05176C182.815 2.01139 183.269 1.92057 183.713 1.7793C184.157 1.61784 184.591 1.50684 185.015 1.44629C185.217 1.40592 185.459 1.40592 185.742 1.44629C186.024 1.48665 186.256 1.58757 186.438 1.74902C186.478 2.05176 186.398 2.24349 186.196 2.32422C186.014 2.40495 185.843 2.48568 185.681 2.56641C185.358 2.72786 185.106 2.9196 184.924 3.1416C184.743 3.36361 184.541 3.61589 184.319 3.89844C184.178 4.08008 184.046 4.23145 183.925 4.35254C183.824 4.47363 183.723 4.64518 183.623 4.86719C183.582 4.9681 183.552 5.09928 183.532 5.26074C183.532 5.40202 183.501 5.5332 183.441 5.6543C183.279 6.09831 183.057 6.54232 182.775 6.98633C182.513 7.43034 182.331 7.84408 182.23 8.22754C182.19 8.42936 182.159 8.62109 182.139 8.80273C182.139 8.98438 182.119 9.17611 182.079 9.37793C181.998 9.6403 181.887 9.93294 181.746 10.2559C181.604 10.5586 181.473 10.8714 181.352 11.1943C181.191 11.598 181.009 12.0521 180.807 12.5566C180.626 13.041 180.464 13.5153 180.323 13.9795C180.242 14.2822 180.171 14.5951 180.111 14.918C180.07 15.2207 180.02 15.5335 179.959 15.8564C179.919 16.1592 179.889 16.4821 179.869 16.8252C179.848 17.1683 179.788 17.471 179.687 17.7334C179.606 17.9352 179.465 18.1068 179.263 18.248C179.082 18.3893 178.94 18.571 178.839 18.793C178.88 18.8737 178.93 18.9342 178.991 18.9746C179.071 19.015 179.102 19.0957 179.082 19.2168C179.021 19.3379 178.96 19.4792 178.9 19.6406C178.839 19.7819 178.819 19.9333 178.839 20.0947C178.88 20.2965 178.971 20.4883 179.112 20.6699C179.273 20.8314 179.374 20.9928 179.415 21.1543C179.455 21.2754 179.465 21.3864 179.445 21.4873C179.425 21.5882 179.435 21.6891 179.475 21.79C179.536 22.012 179.647 22.224 179.808 22.4258C179.99 22.6276 180.161 22.779 180.323 22.8799C180.565 23.0413 180.817 23.1624 181.08 23.2432C181.362 23.3239 181.564 23.5055 181.685 23.7881L181.443 24.1211Z" fill="#9746FF"/>
<path d="M210.933 1.80957C210.872 2.03158 210.751 2.20312 210.57 2.32422C210.408 2.44531 210.216 2.54622 209.994 2.62695C209.793 2.6875 209.571 2.74805 209.328 2.80859C209.086 2.84896 208.864 2.90951 208.662 2.99023C208.461 3.07096 208.239 3.20215 207.996 3.38379C207.754 3.54525 207.572 3.70671 207.451 3.86816C207.189 4.21126 207.028 4.60482 206.967 5.04883C206.906 5.49284 206.816 5.91667 206.695 6.32031C206.654 6.54232 206.584 6.75423 206.483 6.95605C206.402 7.15788 206.331 7.36979 206.271 7.5918C206.109 8.19727 205.897 8.85319 205.635 9.55957C205.373 10.266 205.191 10.9521 205.09 11.6182C205.05 11.9411 205.009 12.2741 204.969 12.6172C204.949 12.9401 204.898 13.2731 204.818 13.6162C204.777 13.7777 204.727 13.9795 204.666 14.2217C204.606 14.4639 204.545 14.7161 204.485 14.9785C204.424 15.2207 204.353 15.4528 204.273 15.6748C204.192 15.8968 204.121 16.0785 204.061 16.2197C204 16.3408 203.919 16.4316 203.819 16.4922C203.718 16.5326 203.637 16.6133 203.576 16.7344C203.475 16.9362 203.415 17.1582 203.395 17.4004C203.375 17.6426 203.334 17.8646 203.274 18.0664C203.193 18.3691 203.122 18.6113 203.062 18.793C203.021 18.9746 202.971 19.1361 202.91 19.2773C202.87 19.4186 202.809 19.5801 202.729 19.7617C202.648 19.9232 202.527 20.1452 202.365 20.4277C202.305 20.5286 202.174 20.6497 201.972 20.791C201.79 20.9323 201.649 21.0736 201.548 21.2148C201.447 21.3359 201.356 21.4671 201.276 21.6084C201.195 21.7497 201.104 21.8708 201.003 21.9717C200.822 22.1735 200.539 22.3551 200.156 22.5166C199.772 22.6579 199.459 22.7992 199.217 22.9404C198.995 23.1019 198.763 23.2734 198.521 23.4551C198.279 23.6367 198.036 23.778 197.794 23.8789C197.572 23.9798 197.32 24.0605 197.037 24.1211C196.755 24.1816 196.492 24.2523 196.25 24.333C196.008 24.4137 195.746 24.4945 195.463 24.5752C195.201 24.6559 194.938 24.7064 194.676 24.7266C194.252 24.7669 193.778 24.8174 193.253 24.8779C192.728 24.9385 192.234 24.9486 191.77 24.9082C191.124 24.8678 190.569 24.8678 190.105 24.9082C189.661 24.9688 189.186 24.9284 188.682 24.7871C187.269 24.4036 186.189 23.6872 185.443 22.6377C184.696 21.568 184.363 20.236 184.444 18.6416C184.484 18.1976 184.514 17.7738 184.534 17.3701C184.555 16.9665 184.635 16.5124 184.777 16.0078C184.857 15.6647 184.918 15.3216 184.958 14.9785C184.999 14.6152 185.039 14.2721 185.079 13.9492C185.14 13.6263 185.231 13.3236 185.352 13.041C185.473 12.7585 185.655 12.5163 185.897 12.3145C186.119 11.6888 186.26 11.0833 186.321 10.498C186.401 9.89258 186.492 9.2972 186.593 8.71191C186.654 8.389 186.754 8.07617 186.896 7.77344C187.037 7.45052 187.158 7.14779 187.259 6.86523C187.36 6.62305 187.441 6.39095 187.501 6.16895C187.562 5.92676 187.642 5.69466 187.743 5.47266C187.784 5.3112 187.844 5.18001 187.925 5.0791C188.006 4.95801 188.066 4.83691 188.107 4.71582C188.268 4.29199 188.389 3.87826 188.47 3.47461C188.571 3.07096 188.732 2.66732 188.954 2.26367C189.156 2.26367 189.378 2.2334 189.62 2.17285C189.883 2.09212 190.135 2.01139 190.377 1.93066C190.64 1.82975 190.902 1.75911 191.164 1.71875C191.427 1.6582 191.679 1.63802 191.921 1.6582C192.062 1.67839 192.224 1.72884 192.406 1.80957C192.607 1.8903 192.779 1.99121 192.92 2.1123C193.082 2.2334 193.213 2.37467 193.314 2.53613C193.415 2.67741 193.455 2.82878 193.435 2.99023C193.394 3.21224 193.273 3.40397 193.072 3.56543C192.87 3.72689 192.728 3.89844 192.648 4.08008C192.607 4.18099 192.597 4.2819 192.617 4.38281C192.638 4.46354 192.638 4.55436 192.617 4.65527C192.577 4.81673 192.517 4.99837 192.436 5.2002C192.355 5.40202 192.284 5.60384 192.224 5.80566C191.982 6.47168 191.739 7.16797 191.497 7.89453C191.275 8.62109 191.073 9.35775 190.892 10.1045C190.791 10.5687 190.7 11.0228 190.619 11.4668C190.539 11.8906 190.418 12.3044 190.256 12.708C190.155 12.9906 190.024 13.2025 189.863 13.3438C189.721 13.485 189.6 13.6667 189.499 13.8887C189.358 14.252 189.297 14.7161 189.318 15.2812C189.338 15.8464 189.308 16.3913 189.227 16.916C189.126 17.4811 189.035 17.9655 188.954 18.3691C188.874 18.7728 188.884 19.1865 188.985 19.6104C189.025 19.7516 189.086 19.8727 189.166 19.9736C189.267 20.0745 189.358 20.2057 189.439 20.3672C189.54 20.6296 189.62 20.8415 189.681 21.0029C189.762 21.1442 189.883 21.235 190.044 21.2754C190.165 21.2956 190.286 21.2855 190.407 21.2451C190.529 21.2048 190.65 21.1846 190.771 21.1846C190.973 21.1846 191.144 21.2148 191.285 21.2754C191.427 21.3158 191.568 21.3662 191.709 21.4268C191.85 21.4671 192.002 21.5075 192.163 21.5479C192.325 21.568 192.527 21.5579 192.769 21.5176C192.95 21.4772 193.142 21.4167 193.344 21.3359C193.546 21.2552 193.727 21.1745 193.889 21.0938C194.111 20.9928 194.293 20.9323 194.434 20.9121C194.575 20.8717 194.706 20.8112 194.827 20.7305C195.292 20.5085 195.635 20.2562 195.857 19.9736C196.099 19.6709 196.381 19.348 196.704 19.0049C196.866 18.9645 197.007 18.9242 197.128 18.8838C197.269 18.8232 197.38 18.7425 197.461 18.6416C197.481 18.5407 197.451 18.4196 197.37 18.2783C197.29 18.137 197.259 17.9857 197.28 17.8242C197.28 17.7233 197.31 17.6224 197.37 17.5215C197.431 17.4206 197.481 17.2995 197.522 17.1582C197.562 17.0371 197.592 16.9059 197.613 16.7646C197.653 16.6032 197.693 16.4619 197.734 16.3408C197.774 16.2197 197.845 16.1188 197.946 16.0381C198.067 15.9372 198.157 15.806 198.218 15.6445C198.279 15.4225 198.289 15.2005 198.248 14.9785C198.228 14.7363 198.228 14.4941 198.248 14.252C198.248 13.9694 198.299 13.707 198.4 13.4648C198.501 13.2025 198.601 12.8997 198.702 12.5566C198.783 12.2539 198.834 11.9411 198.854 11.6182C198.874 11.2952 198.924 10.9925 199.005 10.71C199.045 10.5485 199.106 10.4072 199.187 10.2861C199.288 10.165 199.368 10.0339 199.429 9.89258C199.55 9.61003 199.651 9.30729 199.732 8.98438C199.812 8.66146 199.893 8.34863 199.974 8.0459C200.075 7.74316 200.166 7.44043 200.246 7.1377C200.347 6.83496 200.418 6.54232 200.458 6.25977C200.499 6.03776 200.519 5.83594 200.519 5.6543C200.539 5.45247 200.569 5.24056 200.61 5.01855C200.65 4.83691 200.711 4.67546 200.791 4.53418C200.892 4.37272 200.973 4.20117 201.033 4.01953C201.074 3.87826 201.084 3.73698 201.064 3.5957C201.064 3.45443 201.084 3.32324 201.124 3.20215C201.286 2.73796 201.578 2.43522 202.002 2.29395C202.446 2.13249 202.961 2.0013 203.546 1.90039C203.728 1.86003 203.96 1.81966 204.242 1.7793C204.545 1.71875 204.777 1.69857 204.939 1.71875C205.04 1.73893 205.12 1.78939 205.181 1.87012C205.262 1.93066 205.352 1.97103 205.453 1.99121C205.655 2.01139 205.847 1.95085 206.029 1.80957C206.23 1.66829 206.442 1.57747 206.664 1.53711C206.866 1.47656 207.078 1.42611 207.3 1.38574C207.542 1.34538 207.805 1.33529 208.087 1.35547C208.269 1.39583 208.45 1.44629 208.632 1.50684C208.834 1.56738 209.036 1.61784 209.238 1.6582C209.54 1.67839 209.843 1.66829 210.146 1.62793C210.469 1.56738 210.731 1.62793 210.933 1.80957Z" fill="#9746FF"/>
<path d="M242.663 1.2041C242.804 1.44629 242.875 1.67839 242.875 1.90039C242.411 2.02148 241.997 2.16276 241.634 2.32422C241.291 2.46549 240.978 2.63704 240.695 2.83887C240.413 3.02051 240.15 3.2526 239.908 3.53516C239.686 3.79753 239.464 4.11035 239.242 4.47363C239.121 4.65527 238.98 4.79655 238.818 4.89746C238.677 4.99837 238.556 5.14974 238.455 5.35156C238.314 5.61393 238.203 5.90658 238.122 6.22949C238.041 6.53223 237.961 6.84505 237.88 7.16797C237.839 7.26888 237.799 7.37988 237.759 7.50098C237.718 7.60189 237.678 7.7028 237.638 7.80371C237.597 8.02572 237.587 8.23763 237.607 8.43945C237.628 8.64128 237.597 8.8431 237.517 9.04492C237.456 9.20638 237.375 9.33757 237.274 9.43848C237.173 9.53939 237.093 9.65039 237.032 9.77148C236.871 10.054 236.76 10.3669 236.699 10.71C236.659 11.0531 236.618 11.4163 236.578 11.7998C236.558 11.9209 236.518 12.0319 236.457 12.1328C236.417 12.2337 236.376 12.3447 236.336 12.4658C236.296 12.6273 236.265 12.7887 236.245 12.9502C236.225 13.0915 236.195 13.2428 236.154 13.4043C236.013 13.8079 235.862 14.2217 235.7 14.6455C235.559 15.0492 235.458 15.4528 235.397 15.8564C235.357 16.0785 235.337 16.3005 235.337 16.5225C235.357 16.7243 235.347 16.9362 235.307 17.1582C235.206 17.7435 235.064 18.3086 234.883 18.8535C234.701 19.3783 234.53 19.8929 234.368 20.3975C234.267 20.7607 234.186 21.1038 234.126 21.4268C234.086 21.7295 234.005 22.0524 233.884 22.3955C233.803 22.5771 233.742 22.7487 233.702 22.9102C233.662 23.0514 233.581 23.1927 233.46 23.334C233.339 23.4753 233.167 23.5863 232.945 23.667C232.723 23.7477 232.491 23.8184 232.249 23.8789C232.007 23.9395 231.765 23.9899 231.522 24.0303C231.3 24.0908 231.099 24.1514 230.917 24.2119C230.735 24.2926 230.584 24.4036 230.463 24.5449C230.342 24.7064 230.211 24.8477 230.069 24.9688C229.928 25.11 229.767 25.2008 229.585 25.2412C229.423 25.3018 229.201 25.2715 228.919 25.1504C228.899 24.9082 228.889 24.6357 228.889 24.333C228.909 24.0303 228.939 23.7578 228.979 23.5156C229.04 23.1725 229.141 22.8698 229.282 22.6074C229.444 22.3451 229.595 22.0625 229.736 21.7598C229.958 21.235 230.1 20.7305 230.16 20.2461C230.221 19.7617 230.352 19.2572 230.554 18.7324C230.735 18.6113 230.856 18.4801 230.917 18.3389C230.977 18.1976 231.008 18.0462 231.008 17.8848C231.028 17.7031 231.028 17.5114 231.008 17.3096C230.988 17.1077 230.998 16.8857 231.038 16.6436C231.058 16.4014 231.119 16.1592 231.22 15.917C231.321 15.6748 231.391 15.4225 231.432 15.1602C231.472 14.9382 231.492 14.7666 231.492 14.6455C231.512 14.5042 231.522 14.3831 231.522 14.2822C231.543 14.1813 231.563 14.0804 231.583 13.9795C231.623 13.8584 231.674 13.707 231.734 13.5254C231.815 13.3438 231.906 13.1621 232.007 12.9805C232.108 12.7988 232.199 12.6071 232.279 12.4053C232.441 11.8805 232.562 11.3255 232.643 10.7402C232.723 10.1549 232.804 9.57975 232.885 9.01465C232.925 8.67155 232.986 8.28809 233.066 7.86426C233.167 7.44043 233.198 7.05697 233.157 6.71387C233.076 6.71387 232.925 6.83496 232.703 7.07715C232.501 7.31934 232.249 7.64225 231.946 8.0459C231.664 8.42936 231.341 8.87337 230.977 9.37793C230.634 9.8623 230.291 10.3669 229.948 10.8916C229.625 11.3962 229.312 11.8805 229.01 12.3447C228.727 12.7887 228.495 13.1722 228.313 13.4951C228.011 13.6768 227.779 13.8887 227.617 14.1309C227.476 14.3529 227.355 14.5951 227.254 14.8574C227.153 15.1198 227.052 15.4023 226.951 15.7051C226.85 15.9876 226.699 16.2803 226.497 16.583C226.336 17.2087 226.063 17.8242 225.68 18.4297C225.296 19.0352 224.983 19.6305 224.741 20.2158C224.681 20.3773 224.62 20.5286 224.56 20.6699C224.519 20.791 224.449 20.9323 224.348 21.0938C224.186 21.4974 223.994 21.891 223.772 22.2744C223.571 22.6377 223.359 23.0212 223.137 23.4248C222.894 23.8285 222.622 24.2018 222.319 24.5449C222.198 24.7064 222.097 24.9183 222.017 25.1807C221.956 25.443 221.855 25.5944 221.714 25.6348C221.532 25.6751 221.34 25.6449 221.139 25.5439C220.937 25.4632 220.745 25.4027 220.563 25.3623C220.2 24.8376 219.988 24.3128 219.928 23.7881C219.928 23.6468 219.948 23.5156 219.988 23.3945C220.029 23.2533 220.039 23.1221 220.019 23.001C219.998 22.779 219.908 22.5368 219.746 22.2744C219.585 21.9919 219.484 21.7093 219.443 21.4268C219.363 21.0837 219.363 20.7607 219.443 20.458C219.524 20.1351 219.524 19.8424 219.443 19.5801C219.403 19.459 219.322 19.3581 219.201 19.2773C219.1 19.1764 219.03 19.0755 218.989 18.9746C218.949 18.8333 218.929 18.6719 218.929 18.4902C218.949 18.3086 218.949 18.127 218.929 17.9453C218.868 17.6022 218.767 17.2188 218.626 16.7949C218.505 16.3711 218.394 15.9473 218.293 15.5234C218.192 15.2207 218.051 14.8675 217.869 14.4639C217.708 14.0602 217.607 13.6768 217.566 13.3135C217.546 13.1117 217.526 12.93 217.506 12.7686C217.506 12.5869 217.496 12.4154 217.476 12.2539C217.435 11.8906 217.344 11.4971 217.203 11.0732C217.062 10.6494 216.91 10.2256 216.749 9.80176C216.608 9.37793 216.477 8.9541 216.355 8.53027C216.255 8.10645 216.204 7.69271 216.204 7.28906C216.103 7.32943 216.012 7.42025 215.932 7.56152C215.851 7.7028 215.77 7.87435 215.689 8.07617C215.609 8.27799 215.538 8.47982 215.477 8.68164C215.417 8.88346 215.366 9.04492 215.326 9.16602C215.266 9.26693 215.185 9.37793 215.084 9.49902C214.983 9.62012 214.922 9.76139 214.902 9.92285C214.882 10.0036 214.892 10.0944 214.933 10.1953C214.993 10.2962 215.023 10.4072 215.023 10.5283C215.044 10.8512 214.983 11.1943 214.842 11.5576C214.7 11.9007 214.579 12.2438 214.478 12.5869C214.378 12.9906 214.297 13.4144 214.236 13.8584C214.176 14.2822 214.055 14.7262 213.873 15.1904C213.712 15.6344 213.58 16.0885 213.479 16.5527C213.399 16.9967 213.308 17.4004 213.207 17.7637C213.167 18.026 213.146 18.2884 213.146 18.5508C213.146 18.8132 213.106 19.0251 213.025 19.1865C212.924 19.3883 212.753 19.5498 212.511 19.6709C212.289 19.792 212.147 19.9635 212.087 20.1855C212.067 20.6094 211.976 21.0938 211.814 21.6387C211.653 22.1836 211.512 22.6882 211.391 23.1523C211.35 23.334 211.32 23.5257 211.3 23.7275C211.28 23.9092 211.239 24.0706 211.179 24.2119C211.138 24.3734 211.058 24.5046 210.936 24.6055C210.836 24.7266 210.674 24.7972 210.452 24.8174C210.069 24.8577 209.685 24.7669 209.302 24.5449C208.938 24.3229 208.716 24.0908 208.636 23.8486C208.595 23.6872 208.595 23.5257 208.636 23.3643C208.676 23.1826 208.696 23.0111 208.696 22.8496C208.434 23.0111 208.232 23.0918 208.091 23.0918C207.97 23.0918 207.859 23.0514 207.758 22.9707C207.657 22.8698 207.546 22.7487 207.425 22.6074C207.304 22.446 207.142 22.2946 206.94 22.1533C206.739 21.9919 206.587 21.901 206.486 21.8809C206.385 21.8405 206.315 21.679 206.274 21.3965C206.234 21.0938 206.254 20.8011 206.335 20.5186C206.416 20.236 206.517 20.0039 206.638 19.8223C206.698 19.7012 206.779 19.6003 206.88 19.5195C206.981 19.4186 207.061 19.3177 207.122 19.2168C207.203 19.0553 207.203 18.8333 207.122 18.5508C207.061 18.248 207.082 17.9857 207.183 17.7637C207.324 17.4609 207.475 17.1784 207.637 16.916C207.798 16.6335 207.889 16.2904 207.909 15.8867C207.929 15.7253 207.919 15.5537 207.879 15.3721C207.838 15.1904 207.838 15.0189 207.879 14.8574C207.899 14.696 207.929 14.5345 207.97 14.373C208.03 14.1914 208.091 13.9896 208.151 13.7676C208.212 13.4648 208.323 13.1419 208.484 12.7988C208.646 12.4557 208.777 12.0824 208.878 11.6787C208.959 11.5173 209.029 11.3558 209.09 11.1943C209.15 11.0127 209.211 10.8411 209.271 10.6797C209.393 10.3366 209.473 10.0036 209.514 9.68066C209.574 9.33757 209.655 9.00456 209.756 8.68164C209.796 8.56055 209.857 8.45964 209.937 8.37891C210.038 8.27799 210.109 8.17708 210.149 8.07617C210.311 7.73307 210.392 7.37988 210.392 7.0166C210.392 6.63314 210.432 6.23958 210.513 5.83594C210.573 5.45247 210.644 5.10938 210.725 4.80664C210.825 4.48372 210.906 4.19108 210.967 3.92871C211.027 3.64616 211.037 3.38379 210.997 3.1416C210.977 2.89941 210.876 2.64714 210.694 2.38477C210.593 2.24349 210.482 2.14258 210.361 2.08203C210.26 2.02148 210.2 1.94076 210.18 1.83984C210.18 1.59766 210.27 1.46647 210.452 1.44629C210.654 1.40592 210.876 1.41602 211.118 1.47656C211.36 1.53711 211.592 1.61784 211.814 1.71875C212.057 1.79948 212.208 1.84993 212.269 1.87012C212.369 1.8903 212.491 1.8903 212.632 1.87012C212.773 1.84993 212.924 1.86003 213.086 1.90039C213.268 1.92057 213.449 1.95085 213.631 1.99121C213.812 2.03158 213.974 2.06185 214.115 2.08203C214.438 2.08203 214.67 2.08203 214.811 2.08203C214.953 2.06185 215.175 2.04167 215.477 2.02148C215.76 2.0013 216.103 2.0013 216.507 2.02148C216.931 2.04167 217.294 2.03158 217.597 1.99121C217.859 1.97103 218.182 1.93066 218.565 1.87012C218.969 1.80957 219.352 1.75911 219.716 1.71875C220.099 1.67839 220.432 1.67839 220.715 1.71875C221.018 1.73893 221.189 1.83984 221.229 2.02148C221.29 2.24349 221.229 2.44531 221.048 2.62695C220.886 2.78841 220.785 2.95996 220.745 3.1416C220.705 3.62598 220.654 4.1709 220.594 4.77637C220.533 5.36165 220.533 5.85612 220.594 6.25977C220.634 6.48177 220.644 6.70378 220.624 6.92578C220.604 7.1276 220.624 7.30924 220.685 7.4707C220.806 7.91471 220.896 8.33854 220.957 8.74219C220.977 8.98438 221.068 9.21647 221.229 9.43848C221.411 9.6403 221.492 9.85221 221.472 10.0742C221.451 10.3568 221.502 10.6494 221.623 10.9521C221.764 11.2347 221.845 11.5374 221.865 11.8604C221.906 12.1833 221.926 12.5163 221.926 12.8594C221.946 13.2025 222.057 13.5153 222.259 13.7979C222.461 13.6364 222.582 13.4346 222.622 13.1924C222.683 12.9502 222.763 12.7181 222.864 12.4961C222.905 12.3952 222.965 12.3044 223.046 12.2236C223.147 12.1227 223.238 12.0218 223.318 11.9209C223.54 11.4567 223.813 10.9723 224.136 10.4678C224.479 9.94303 224.771 9.41829 225.014 8.89355C225.276 8.389 225.528 7.88444 225.77 7.37988C226.013 6.85514 226.245 6.3304 226.467 5.80566C226.507 5.72493 226.578 5.63411 226.679 5.5332C226.8 5.43229 226.921 5.33138 227.042 5.23047C227.163 5.12956 227.274 5.03874 227.375 4.95801C227.496 4.8571 227.587 4.75618 227.647 4.65527C227.95 4.09017 228.202 3.60579 228.404 3.20215C228.626 2.77832 228.788 2.25358 228.889 1.62793C229.252 1.60775 229.595 1.61784 229.918 1.6582C230.261 1.69857 230.634 1.74902 231.038 1.80957C231.199 1.84993 231.341 1.90039 231.462 1.96094C231.603 2.02148 231.744 2.06185 231.886 2.08203C232.168 2.1224 232.39 2.13249 232.552 2.1123C232.733 2.09212 232.885 2.07194 233.006 2.05176C233.147 2.01139 233.278 1.99121 233.399 1.99121C233.541 1.97103 233.732 2.0013 233.975 2.08203C234.661 2.08203 235.367 2.03158 236.094 1.93066C236.82 1.82975 237.547 1.72884 238.273 1.62793C239.02 1.50684 239.757 1.40592 240.483 1.3252C241.23 1.24447 241.957 1.2041 242.663 1.2041Z" fill="#9746FF"/>
</svg>
