<svg width="53" height="53" viewBox="0 0 53 53" fill="none" xmlns="http://www.w3.org/2000/svg">
<path d="M26.5997 7.53333C25.5597 7.53333 25.2131 8.22666 24.5197 8.91999L4.41307 41.8533C4.06641 42.2 4.06641 42.8933 4.06641 43.24C4.06641 44.9733 5.45307 45.6667 6.49307 45.6667H46.7064C48.0931 45.6667 49.1331 44.9733 49.1331 43.24C49.1331 42.5467 49.1331 42.5467 48.7864 41.8533L29.0264 8.91999C28.3331 8.22666 27.6397 7.53333 26.5997 7.53333ZM26.5997 12.7333L38.0397 31.8H35.2664L30.0664 26.6L26.5997 31.8L23.1331 26.6L17.9331 31.8H14.8131L26.5997 12.7333Z" fill="#FAFAFA"/>
</svg>
