<svg width="512" height="512" viewBox="0 0 512 512" fill="none" xmlns="http://www.w3.org/2000/svg">
<g clip-path="url(#clip0)">
<path d="M429.281 289.199C372.188 248.227 311.781 226.57 254.598 226.57C197.414 226.57 137.012 248.227 79.9141 289.199C37.2031 319.848 11.418 350.266 10.3438 351.543L-1 365.027L14.1445 374.027C15.2227 374.668 41.0352 389.895 83.582 405.16C122.73 419.207 184.18 435.949 254.598 435.949C325.016 435.949 386.465 419.207 425.613 405.16C468.16 389.895 493.973 374.668 495.051 374.027L510.195 365.027L498.852 351.547C497.777 350.266 471.996 319.848 429.281 289.199V289.199ZM408.727 311.293C358.281 294.609 306.691 286.176 254.598 286.176C202.508 286.176 150.918 294.609 100.473 311.293C136.66 285.867 192.023 256.48 254.598 256.48C317.172 256.48 372.535 285.867 408.727 311.293ZM329.375 331.262C329.375 372.492 295.832 406.039 254.598 406.039C213.363 406.039 179.82 372.492 179.82 331.262C179.82 328.32 179.996 325.391 180.336 322.488C190.738 320.773 201.164 319.434 211.605 318.441C210.391 322.508 209.73 326.805 209.73 331.262C209.73 356 229.859 376.129 254.598 376.129C279.34 376.129 299.465 356 299.465 331.262C299.465 326.805 298.805 322.508 297.59 318.441C308.031 319.434 318.457 320.773 328.859 322.488C329.199 325.391 329.375 328.32 329.375 331.262V331.262ZM269.555 331.262C269.555 339.508 262.844 346.215 254.598 346.215C246.352 346.215 239.641 339.508 239.641 331.262C239.641 323.582 245.461 317.242 252.922 316.406C254.039 316.402 255.156 316.402 256.273 316.406C263.734 317.242 269.555 323.582 269.555 331.262V331.262ZM55.3438 361.355C86.3281 346.961 117.969 336.035 149.949 328.551C149.926 329.453 149.906 330.355 149.906 331.262C149.906 356.918 159.191 380.441 174.566 398.668C122.75 389.277 80.6133 372.883 55.3438 361.355ZM334.602 398.703C349.992 380.473 359.289 356.934 359.289 331.262C359.289 330.355 359.27 329.453 359.246 328.551C391.238 336.035 422.895 346.973 453.891 361.375C428.648 372.914 386.527 389.32 334.602 398.703Z" fill="#FAFAFA"/>
<path d="M368.242 90.8165C351.797 79.7188 332 75.6368 312.508 79.3243L31.9493 132.399C0.00394249 138.441 -10.2109 179.074 15 199.531C35.5821 216.227 62.2461 222.699 88.1446 217.356L346.063 164.133L511 189.363L368.371 90.9063L368.242 90.8165ZM345.281 133.754L82.1016 188.063C64.9922 191.59 47.4063 187.305 33.8438 176.301C28.3985 171.883 30.5664 163.102 37.5078 161.789L318.066 108.715C329.395 106.57 341.305 108.746 351.445 115.566L387.047 140.145L345.281 133.754Z" fill="#FAFAFA"/>
</g>
<defs>
<clipPath id="clip0">
<rect width="512" height="512" fill="white"/>
</clipPath>
</defs>
</svg>
