<svg width="46" height="47" viewBox="0 0 46 47" fill="none" xmlns="http://www.w3.org/2000/svg">
<path d="M5.77342 13.5087H25.8823C26.1759 14.3384 26.7194 15.0566 27.4381 15.5646C28.1567 16.0726 29.0151 16.3454 29.8952 16.3454C30.7753 16.3454 31.6337 16.0726 32.3523 15.5646C33.071 15.0566 33.6145 14.3384 33.9081 13.5087H39.8277C40.204 13.5087 40.5649 13.3592 40.831 13.0931C41.0971 12.827 41.2466 12.4661 41.2466 12.0898C41.2466 11.7135 41.0971 11.3526 40.831 11.0865C40.5649 10.8204 40.204 10.6709 39.8277 10.6709H33.9081C33.6145 9.84123 33.071 9.12299 32.3523 8.61499C31.6337 8.107 30.7753 7.83423 29.8952 7.83423C29.0151 7.83423 28.1567 8.107 27.4381 8.61499C26.7194 9.12299 26.1759 9.84123 25.8823 10.6709H5.77342C5.3971 10.6709 5.03619 10.8204 4.77009 11.0865C4.50399 11.3526 4.35449 11.7135 4.35449 12.0898C4.35449 12.4661 4.50399 12.827 4.77009 13.0931C5.03619 13.3592 5.3971 13.5087 5.77342 13.5087Z" fill="#FAFAFA"/>
<path d="M39.8277 33.3738H33.9081C33.6145 32.5441 33.071 31.8259 32.3523 31.3179C31.6337 30.8099 30.7753 30.5371 29.8952 30.5371C29.0151 30.5371 28.1567 30.8099 27.4381 31.3179C26.7194 31.8259 26.1759 32.5441 25.8823 33.3738H5.77342C5.3971 33.3738 5.03619 33.5232 4.77009 33.7893C4.50399 34.0554 4.35449 34.4164 4.35449 34.7927C4.35449 35.169 4.50399 35.5299 4.77009 35.796C5.03619 36.0621 5.3971 36.2116 5.77342 36.2116H25.8823C26.1759 37.0413 26.7194 37.7595 27.4381 38.2675C28.1567 38.7755 29.0151 39.0483 29.8952 39.0483C30.7753 39.0483 31.6337 38.7755 32.3523 38.2675C33.071 37.7595 33.6145 37.0413 33.9081 36.2116H39.8277C40.204 36.2116 40.5649 36.0621 40.831 35.796C41.0971 35.5299 41.2466 35.169 41.2466 34.7927C41.2466 34.4164 41.0971 34.0554 40.831 33.7893C40.5649 33.5232 40.204 33.3738 39.8277 33.3738Z" fill="#FAFAFA"/>
<path d="M39.8277 22.0223H19.7188C19.4252 21.1927 18.8817 20.4744 18.1631 19.9664C17.4444 19.4584 16.586 19.1857 15.7059 19.1857C14.8259 19.1857 13.9674 19.4584 13.2488 19.9664C12.5301 20.4744 11.9866 21.1927 11.693 22.0223H5.77342C5.3971 22.0223 5.03619 22.1718 4.77009 22.4379C4.50399 22.704 4.35449 23.0649 4.35449 23.4412C4.35449 23.8176 4.50399 24.1785 4.77009 24.4446C5.03619 24.7107 5.3971 24.8602 5.77342 24.8602H11.693C11.9866 25.6898 12.5301 26.4081 13.2488 26.9161C13.9674 27.424 14.8259 27.6968 15.7059 27.6968C16.586 27.6968 17.4444 27.424 18.1631 26.9161C18.8817 26.4081 19.4252 25.6898 19.7188 24.8602H39.8277C40.204 24.8602 40.5649 24.7107 40.831 24.4446C41.0971 24.1785 41.2466 23.8176 41.2466 23.4412C41.2466 23.0649 41.0971 22.704 40.831 22.4379C40.5649 22.1718 40.204 22.0223 39.8277 22.0223Z" fill="#FAFAFA"/>
</svg>
