<svg width="512" height="512" viewBox="0 0 512 512" fill="none" xmlns="http://www.w3.org/2000/svg">
<path d="M479.656 147.746C478.449 143.234 475.555 139.461 471.508 137.125L456.793 128.629C452.746 126.293 448.031 125.672 443.516 126.883C439.004 128.09 435.23 130.984 432.895 135.031L424.113 150.238C420.387 148.488 416.203 148.102 412.176 149.18C407.664 150.391 403.891 153.285 401.555 157.332L401 158.289V93.5C401 72.8203 384.18 56 363.5 56H308.801C307.578 47.5352 300.297 41 291.5 41H266V22.5C266 10.0938 255.906 0 243.5 0H188.5C176.094 0 166 10.0938 166 22.5V41H140.5C131.703 41 124.418 47.5352 123.199 56H68.5C47.8203 56 31 72.8203 31 93.5V474.5C31 495.18 47.8203 512 68.5 512H302.547C306.688 512 310.047 508.645 310.047 504.5C310.047 500.355 306.688 497 302.547 497H68.5C56.0938 497 46 486.906 46 474.5V93.5C46 81.0938 56.0938 71 68.5 71H123V107.5C123 117.148 130.852 125 140.5 125H291.5C301.148 125 309 117.148 309 107.5V100.5H356.5V235.367L280.184 367.551C277.426 372.324 276.176 377.754 276.57 383.254L279.914 430.105C280.207 434.203 282.496 437.895 286.035 439.98C287.988 441.129 290.18 441.711 292.383 441.711C294.172 441.711 295.965 441.324 297.637 440.551L340.754 420.555C345.918 418.16 350.152 414.289 352.996 409.363L356.5 403.297V467.5H75.5V100.5H95.5C99.6406 100.5 103 97.1445 103 93C103 88.8555 99.6406 85.5 95.5 85.5H73C66.1055 85.5 60.5 91.1055 60.5 98V470C60.5 476.895 66.1055 482.5 73 482.5H359C365.891 482.5 371.5 476.895 371.5 470V377.312L386 352.199V474.5C386 486.906 375.906 497 363.5 497H337.543C333.402 497 330.043 500.355 330.043 504.5C330.043 508.641 333.402 512 337.543 512H363.5C384.176 512 401 495.176 401 474.5V326.219L464.273 216.625L474.27 199.312C476.605 195.266 477.227 190.551 476.016 186.039C474.938 182.012 472.512 178.586 469.129 176.23L477.91 161.023C480.246 156.977 480.867 152.262 479.656 147.746V147.746ZM445.883 142.531C446.57 141.34 448.098 140.93 449.293 141.617L464.008 150.113C464.785 150.563 465.07 151.258 465.172 151.629C465.27 152.004 465.371 152.742 464.922 153.523L456.176 168.668L437.141 157.68L445.883 142.531ZM414.543 164.832C414.992 164.055 415.687 163.77 416.059 163.672C416.434 163.566 417.172 163.469 417.949 163.918L460.363 188.406C461.145 188.855 461.43 189.547 461.527 189.922C461.629 190.293 461.727 191.035 461.277 191.812L455.031 202.629L408.301 175.648L414.543 164.832ZM181 22.5C181 18.3633 184.363 15 188.5 15H243.5C247.637 15 251 18.3633 251 22.5V41H181V22.5ZM294 107.5C294 108.879 292.879 110 291.5 110H140.5C139.121 110 138 108.879 138 107.5V58.5C138 57.1211 139.121 56 140.5 56H291.5C292.879 56 294 57.1211 294 58.5V107.5ZM359 85.5H309V71H363.5C375.906 71 386 81.0938 386 93.5V184.273L371.5 209.387V98C371.5 91.1055 365.895 85.5 359 85.5ZM400.801 188.641L447.531 215.621L355.586 374.879L308.852 347.898L400.801 188.641ZM340.008 401.863C338.715 404.102 336.789 405.859 334.445 406.945V406.949L294.617 425.418L291.531 382.188C291.352 379.688 291.922 377.223 293.176 375.055L301.352 360.887L348.086 387.867L340.008 401.863Z" fill="#FAFAFA"/>
<path d="M108.469 418.438C109.894 419.707 111.676 420.328 113.445 420.328C115.516 420.328 117.574 419.477 119.055 417.809L133.926 401.066L145.437 414.797C147.746 417.555 151.133 419.18 154.727 419.266C158.324 419.328 161.777 417.883 164.211 415.238L178.055 400.207L193.398 417.574C196.144 420.68 200.883 420.973 203.984 418.23C207.09 415.488 207.383 410.75 204.641 407.645L187.461 388.199C185.121 385.551 181.754 384.012 178.223 383.977C178.18 383.973 178.137 383.973 178.094 383.973C174.605 383.973 171.262 385.438 168.898 388.004L155.105 402.98L143.559 389.211C141.223 386.426 137.797 384.797 134.156 384.742C130.516 384.66 127.051 386.223 124.637 388.941L107.844 407.848C105.09 410.945 105.371 415.688 108.469 418.438V418.438Z" fill="#FAFAFA"/>
<path d="M329.75 165.5C329.75 161.355 326.391 158 322.25 158H109.25C105.109 158 101.75 161.355 101.75 165.5C101.75 169.645 105.109 173 109.25 173H322.25C326.391 173 329.75 169.645 329.75 165.5Z" fill="#FAFAFA"/>
<path d="M110.25 213H199.25C203.391 213 206.75 209.645 206.75 205.5C206.75 201.355 203.391 198 199.25 198H110.25C106.109 198 102.75 201.355 102.75 205.5C102.75 209.645 106.109 213 110.25 213Z" fill="#FAFAFA"/>
<path d="M276.75 205.5C276.75 201.355 273.391 198 269.25 198H234.25C230.109 198 226.75 201.355 226.75 205.5C226.75 209.645 230.109 213 234.25 213H269.25C273.391 213 276.75 209.645 276.75 205.5Z" fill="#FAFAFA"/>
<path d="M110.25 253H182.25C186.391 253 189.75 249.645 189.75 245.5C189.75 241.355 186.391 238 182.25 238H110.25C106.109 238 102.75 241.355 102.75 245.5C102.75 249.645 106.109 253 110.25 253Z" fill="#FAFAFA"/>
<path d="M248.25 238H214.25C210.109 238 206.75 241.355 206.75 245.5C206.75 249.645 210.109 253 214.25 253H248.25C252.391 253 255.75 249.645 255.75 245.5C255.75 241.355 252.391 238 248.25 238Z" fill="#FAFAFA"/>
<path d="M110.25 293H162.25C166.391 293 169.75 289.645 169.75 285.5C169.75 281.355 166.391 278 162.25 278H110.25C106.109 278 102.75 281.355 102.75 285.5C102.75 289.645 106.109 293 110.25 293Z" fill="#FAFAFA"/>
<path d="M255.75 285.5C255.75 281.355 252.391 278 248.25 278H194.25C190.109 278 186.75 281.355 186.75 285.5C186.75 289.645 190.109 293 194.25 293H248.25C252.391 293 255.75 289.645 255.75 285.5Z" fill="#FAFAFA"/>
<path d="M110.25 333H162.25C166.391 333 169.75 329.645 169.75 325.5C169.75 321.355 166.391 318 162.25 318H110.25C106.109 318 102.75 321.355 102.75 325.5C102.75 329.645 106.109 333 110.25 333Z" fill="#FAFAFA"/>
</svg>
