<svg width="44" height="44" viewBox="0 0 44 44" fill="none" xmlns="http://www.w3.org/2000/svg">
<g clip-path="url(#clip0)">
<path d="M34.6777 23.1274C33.2972 22.9264 31.9514 22.5339 30.6792 21.9614C34.6049 18.5096 38.6923 15.2462 42.9277 12.1824L43.2027 11.9899L43.3677 11.6874C44.1314 10.0782 44.3392 8.26099 43.9584 6.52095C43.5777 4.78092 42.6299 3.21656 41.264 2.07339C40 0.901735 38.3923 0.168456 36.679 -0.0177881C34.9656 -0.204032 33.2378 0.166671 31.7517 1.03939L31.4052 1.40514C27.2897 7.12042 22.7797 12.541 17.9082 17.6274C12.7173 22.2471 7.18506 26.4684 1.35871 30.2554L0.275209 30.9374V31.5699C-0.133963 33.286 -0.173943 35.0695 0.157914 36.8023C0.489772 38.5351 1.1859 40.1776 2.20021 41.6211C2.9797 42.4329 3.92597 43.0659 4.97377 43.4766C6.02158 43.8873 7.14598 44.0658 8.26946 43.9999C9.23033 44.051 10.1878 43.8488 11.0459 43.4135C11.904 42.9781 12.6327 42.325 13.159 41.5194C13.8327 40.6724 18.8377 34.3474 24.1727 28.5724C24.9097 29.8484 25.4817 31.3306 25.8062 32.9036C26.1533 35.7725 25.776 38.6826 24.709 41.3681L29.3427 35.7499L33.0002 38.4999C32.8968 35.3818 32.3562 32.2937 31.3942 29.3259C30.7189 28.0988 29.8716 26.9745 28.878 25.9874C29.9945 26.9389 31.2732 27.7556 32.651 28.3909C35.236 29.3204 38.1207 29.9639 41.11 30.2389L38.5002 26.7574L44.0002 21.9999C41.5326 22.7932 38.9555 23.1932 36.3635 23.1851C35.7695 23.1851 35.181 23.1659 34.598 23.1246L34.6777 23.1274ZM33.4402 3.24489C34.1605 2.89064 34.953 2.70803 35.7557 2.71139C37.1472 2.71139 38.4122 3.25039 39.3555 4.13039C40.2319 4.83205 40.8626 5.79405 41.1567 6.87752C41.4508 7.96099 41.393 9.10989 40.9917 10.1584C39.6552 11.0026 34.5402 14.8801 29.5902 19.2526C29.4487 17.8741 28.7928 16.5995 27.7532 15.6831C27.2878 15.2839 26.7439 14.9866 26.1566 14.8104C25.5693 14.6342 24.9515 14.583 24.3432 14.6601C27.5477 10.9955 30.5832 7.18641 33.4402 3.24489ZM7.42521 32.4774C7.63667 32.3303 7.88813 32.2516 8.14571 32.2519L8.25571 32.2574H8.44271C8.93496 32.4004 9.36121 32.6479 9.71046 32.9751L7.31521 34.9524C7.01843 34.3414 6.90477 33.6575 6.98796 32.9834C7.06487 32.7673 7.21986 32.5877 7.42246 32.4801L7.42521 32.4774ZM11.0002 39.8749C10.7296 40.3538 10.3216 40.7405 9.82894 40.9852C9.33626 41.2298 8.78154 41.321 8.23646 41.2471C7.48837 41.3161 6.73429 41.2188 6.02826 40.962C5.32223 40.7053 4.68174 40.2955 4.15271 39.7621C3.10318 38.1996 2.54485 36.3589 2.54946 34.4766C2.54946 33.7864 2.62371 33.1154 2.76121 32.4691L4.70271 31.2124C4.44421 31.5974 4.25171 32.0484 4.15546 32.5351C4.00185 34.4467 4.52238 36.3518 5.62671 37.9196L6.60021 39.1296L11.2752 35.2796C11.7435 36.8084 11.6399 38.4553 10.9837 39.9134L11.0002 39.8749ZM13.3652 33.1374C12.4276 31.4925 10.9216 30.2466 9.13021 29.6339C8.93496 29.6009 8.77271 29.5899 8.60771 29.5899C8.44271 29.5899 8.28046 29.6009 8.12096 29.6174C7.80114 29.5813 7.47828 29.5813 7.15846 29.6174C10.9676 27.0261 14.6289 24.2241 18.1255 21.2244C19.22 21.4196 20.3585 21.9119 21.2357 22.6901C22.0525 23.5509 22.5557 24.7224 22.5557 26.0149L22.5502 26.2734C19.665 29.369 16.9125 32.5858 14.3002 35.9149C14.1628 34.9213 13.829 33.965 13.3185 33.1016L13.3652 33.1374Z" fill="#FAFAFA"/>
</g>
<defs>
<clipPath id="clip0">
<rect width="44" height="44" fill="white"/>
</clipPath>
</defs>
</svg>
