<svg width="46" height="46" viewBox="0 0 46 46" fill="none" xmlns="http://www.w3.org/2000/svg">
<path d="M43.9996 39.8H1.99961C1.22611 39.8 0.599609 40.4265 0.599609 41.2V44C0.599609 44.7735 1.22611 45.4 1.99961 45.4H43.9996C44.7731 45.4 45.3996 44.7735 45.3996 44V41.2C45.3996 40.4265 44.7731 39.8 43.9996 39.8ZM17.3996 34.2L11.7996 31.4L17.3996 28.6L20.1996 23L22.9996 28.6L28.5996 31.4L22.9996 34.2L21.5996 37H39.7996L32.2387 19.3574C31.6981 18.0968 31.6393 16.6816 32.0734 15.3805L36.9996 0.600037L20.5864 9.97916C18.5158 11.1623 16.877 12.9755 15.9086 15.1548L6.19961 37H18.7996L17.3996 34.2ZM22.9996 14.6L24.3996 11.8L25.7996 14.6L28.5996 16L25.7996 17.4L24.3996 20.2L22.9996 17.4L20.1996 16L22.9996 14.6Z" fill="#FAFAFA"/>
</svg>
