<svg width="512" height="512" viewBox="0 0 512 512" fill="none" xmlns="http://www.w3.org/2000/svg">
<g clip-path="url(#clip0)">
<path d="M422.784 50.8759C355.542 -2.03077 297.6 -11.7332 193.238 12.3479C164.89 18.8844 132.813 28.8599 109.696 53.3079C94.6427 69.4031 83.0285 88.3982 75.5629 109.133C72.3936 118.263 69.8113 127.586 67.8317 137.045L67.1576 139.998C65.2664 146.887 62.7412 153.586 59.6141 160.009C55.0714 167.779 52.6524 176.608 52.5997 185.609C54.3252 193.23 58.7316 199.977 65.0157 204.621C69.1885 208.452 71.9362 211.149 71.9618 213.607C71.5978 214.993 71.0436 216.323 70.3149 217.558C68.9506 219.981 67.9691 222.6 67.405 225.323C66.2388 235.557 62.0567 245.213 55.3901 253.065C28.5869 281.942 20.9325 291.9 21.8712 302.208C23.3327 309.372 27.8872 315.522 34.3128 319.01C37.126 320.976 40.0972 322.706 43.196 324.182C46.8653 326.059 53.0178 329.199 53.436 331.443C53.9926 334.335 53.6624 337.327 52.4888 340.028C51.2344 342.707 49.9288 345.011 48.7938 347.025C45.4658 352.913 40.4482 361.814 48.316 368.452C50.1592 370.082 53.3165 372.566 56.1922 374.767C54.0516 378.518 53.0967 382.828 53.453 387.132C53.9025 390.471 55.7162 393.474 58.4621 395.426C60.365 396.783 62.396 397.986 64.4354 399.121C69.436 401.98 71.3816 403.311 72.0557 405.948C72.674 409.141 72.4265 412.441 71.3389 415.505C68.5105 425.535 68.9923 436.209 72.7128 445.944C77.095 462.156 93.4219 472.084 109.833 468.514C134.135 462.641 158.1 455.454 181.624 446.985C193.4 454.008 204.595 471.074 212.668 494.55C216.194 504.95 225.938 511.962 236.92 512H409.003C417.863 511.994 426.089 507.407 430.752 499.874C435.415 492.341 435.852 482.932 431.906 475C421.25 451.294 414.617 425.979 412.28 400.094C409.252 374.572 413.081 348.704 423.373 325.154C429.509 312.413 437.075 300.412 445.927 289.383C462.806 266.573 481.937 240.743 482.56 196.753C483.068 172.292 480.071 147.883 473.66 124.271C465.07 94.9551 447.222 69.2069 422.784 50.8759V50.8759ZM432.222 279.228C422.597 291.289 414.385 304.414 407.749 318.345C396.234 344.677 391.945 373.602 395.324 402.142C397.882 429.997 405.093 457.227 416.657 482.697C417.929 485.336 417.758 488.442 416.204 490.926C414.651 493.409 411.932 494.922 409.003 494.934H236.92C233.229 494.901 229.965 492.529 228.796 489.028C223.238 470.913 213.661 454.286 200.781 440.388L207.155 438.153C213.462 435.934 218.249 434.262 220.604 433.511C257.11 422.025 275.371 405.351 274.867 384.086C274.877 381.803 273.947 379.617 272.296 378.041C270.645 376.466 268.417 375.64 266.138 375.757C263.874 375.808 261.724 376.757 260.161 378.394C258.597 380.032 257.748 382.223 257.801 384.487C258.006 393.284 250.838 406.11 215.458 417.238C212.967 418.023 208.034 419.755 201.498 422.05C195.379 424.201 187.845 426.863 179.525 429.73H179.456C155.508 438.421 131.106 445.811 106.36 451.866C98.3807 453.412 90.6161 448.341 88.8237 440.414C86.159 433.744 85.8579 426.363 87.9704 419.499C89.7328 413.761 89.9594 407.662 88.6274 401.809C86.1834 393.983 80.4554 387.607 72.9346 384.342C72.3202 383.992 71.7058 383.65 71.1 383.292C72.0082 381.417 73.1032 379.639 74.3682 377.984C75.7823 376.172 76.4057 373.867 76.0973 371.589C75.789 369.311 74.5748 367.254 72.7298 365.884C70.6818 364.365 65.8178 360.704 62.3192 357.905C62.7544 357.103 63.2408 356.199 63.693 355.431C64.9986 353.118 66.5005 350.439 67.9597 347.384C70.6817 341.417 71.4838 334.753 70.2552 328.312C68.2669 317.841 58.3085 312.747 51.0125 309.018C48.7765 307.961 46.6204 306.744 44.5613 305.374C42.5616 303.984 40.6755 302.438 38.9208 300.749C39.0658 295.817 57.8392 275.567 67.9341 264.687C76.9012 254.412 82.5893 241.69 84.2669 228.156C84.6292 227.173 85.0627 226.217 85.564 225.297C87.6947 221.692 88.8941 217.612 89.0541 213.427C88.1985 204.806 83.6317 196.984 76.5442 192C73.1309 188.843 69.8541 185.856 69.4872 183.228C70.5226 177.541 72.4462 172.052 75.1874 166.963C78.7594 159.546 81.6167 151.806 83.7208 143.847L84.412 140.868C86.2377 132.109 88.6118 123.474 91.5202 115.012C98.2028 96.4498 108.594 79.4418 122.061 65.0242C142.003 43.9212 169.848 35.2172 197.026 28.9538C308.361 3.2855 356.847 20.7276 412.254 64.3074C433.921 80.3417 449.73 103.04 457.259 128.922C463.22 150.941 465.999 173.699 465.511 196.506C464.973 234.983 449.067 256.478 432.222 279.228V279.228Z" fill="#FAFAFA"/>
<path d="M363.81 143.189C376.121 156.26 396.24 158.113 410.732 147.513C425.225 136.912 429.552 117.177 420.824 101.485C412.097 85.7935 393.048 79.0594 376.398 85.7796C359.747 92.4998 350.71 110.57 355.32 127.923C344.799 137.048 336.208 148.183 330.052 160.674C324.593 156.584 318.655 153.174 312.371 150.52C305.144 136.764 306.449 117.948 309.76 102.229C310.34 102.229 310.886 102.4 311.467 102.4C328.634 102.536 343.275 89.9958 345.778 73.0111C348.281 56.0265 337.88 39.7958 321.404 34.9735C304.927 30.1512 287.416 38.2132 280.367 53.8672C273.318 69.5213 278.887 87.9764 293.419 97.1179C289.739 112.062 289.158 127.602 291.712 142.78C284.459 140.504 276.494 138.377 267.819 136.397C259.968 134.63 252.501 133.129 245.478 131.857C238.31 125.596 232.911 117.563 229.82 108.561C245.906 102.431 254.933 85.3043 250.9 68.5688C246.867 51.8334 231.029 40.6995 213.916 42.5697C196.804 44.44 183.744 58.732 183.421 75.9436C183.098 93.1552 195.612 107.927 212.642 110.438C214.356 116.437 216.792 122.205 219.896 127.616C203.017 125.141 187.093 123.349 174.285 122.129C171.397 105.108 156.3 92.8931 139.051 93.6219C121.803 94.3506 107.789 107.796 106.348 125C104.906 142.203 116.487 157.793 133.373 161.382C150.26 164.971 167.18 155.439 172.86 139.136C191.036 140.843 215.526 143.744 239.966 148.181L241.331 148.437C232.718 155.292 225.084 163.294 218.641 172.22C215.542 171.242 212.317 170.719 209.067 170.667C192.747 170.607 178.651 182.066 175.376 198.054C172.102 214.042 180.56 230.12 195.589 236.48C210.618 242.84 228.048 237.717 237.244 224.235C246.441 210.753 244.852 192.656 233.446 180.984C240.545 171.032 249.634 162.666 260.139 156.416C262.166 155.318 264.274 154.376 266.445 153.6C278.507 156.286 290.341 159.906 301.841 164.429C302.104 164.576 302.375 164.71 302.652 164.83L302.797 164.898L302.933 164.966C310.143 167.594 316.786 171.57 322.509 176.683C323.561 177.732 324.468 178.917 325.205 180.207C329.131 186.82 328.269 196.625 322.475 211.106C319.309 219.093 315.145 227.413 310.733 236.22C295.68 266.266 278.63 300.322 306.133 322.406C338.227 348.083 339.362 436.753 337.092 468.736C336.928 470.995 337.669 473.227 339.151 474.939C340.633 476.652 342.735 477.705 344.994 477.867H345.6C350.086 477.878 353.815 474.414 354.133 469.939C354.5 464.879 362.47 345.583 316.834 309.077C301.261 296.593 310.357 275.157 326.016 243.883C329.822 236.297 333.611 228.523 336.819 220.928C345.38 218.852 354.401 221.447 360.55 227.755C350.363 241.944 352.319 261.495 365.115 273.385C377.91 285.275 397.552 285.793 410.956 274.594C424.361 263.394 427.344 243.974 417.919 229.268C408.494 214.562 389.603 209.16 373.828 216.661C365.527 208.573 354.6 203.728 343.032 203.008C345.536 194.033 345.138 184.497 341.897 175.761C346.796 163.466 354.267 152.36 363.81 143.189V143.189ZM388.267 102.4C397.692 102.4 405.333 110.041 405.333 119.467C405.333 128.892 397.692 136.533 388.267 136.533C378.841 136.533 371.2 128.892 371.2 119.467C371.2 110.041 378.841 102.4 388.267 102.4ZM311.467 51.2001C320.892 51.2001 328.533 58.8411 328.533 68.2667C328.533 77.6924 320.892 85.3334 311.467 85.3334C302.041 85.3334 294.4 77.6924 294.4 68.2667C294.4 58.8411 302.041 51.2001 311.467 51.2001ZM200.533 76.8001C200.533 67.3744 208.174 59.7334 217.6 59.7334C227.026 59.7334 234.667 67.3744 234.667 76.8001C234.667 86.2257 227.026 93.8667 217.6 93.8667C208.174 93.8667 200.533 86.2257 200.533 76.8001ZM140.8 145.067C131.374 145.067 123.733 137.426 123.733 128C123.733 118.574 131.374 110.933 140.8 110.933C150.226 110.933 157.867 118.574 157.867 128C157.867 137.426 150.226 145.067 140.8 145.067ZM209.067 221.867C199.641 221.867 192 214.226 192 204.8C192 195.374 199.641 187.733 209.067 187.733C218.492 187.733 226.133 195.374 226.133 204.8C226.133 214.226 218.492 221.867 209.067 221.867ZM405.333 247.467C405.333 256.892 397.692 264.533 388.267 264.533C378.841 264.533 371.2 256.892 371.2 247.467C371.2 238.041 378.841 230.4 388.267 230.4C397.692 230.4 405.333 238.041 405.333 247.467Z" fill="#FAFAFA"/>
</g>
<defs>
<clipPath id="clip0">
<rect width="512" height="512" fill="white"/>
</clipPath>
</defs>
</svg>
