<svg width="21" height="24" viewBox="0 0 21 24" fill="none" xmlns="http://www.w3.org/2000/svg">
<g clip-path="url(#clip0)">
<path d="M18.1818 6.48481C19.7383 6.48481 21.0003 5.04272 21.0003 3.26365C21.0003 1.48477 19.7383 0.0424805 18.1818 0.0424805C16.6251 0.0424805 15.3633 1.48477 15.3633 3.26365C15.365 5.04193 16.6258 6.48285 18.1818 6.48481ZM18.1818 0.847772C19.3492 0.847772 20.2957 1.92949 20.2957 3.26365C20.2957 4.598 19.3492 5.67952 18.1818 5.67952C17.0142 5.67952 16.0679 4.598 16.0679 3.26365C16.0689 1.93008 17.0148 0.849148 18.1818 0.847772Z" fill="#FAFAFA"/>
<path d="M6.15278 9.47006C6.56496 9.47085 6.96063 9.28407 7.25204 8.95063L10.431 5.31719L12.5529 7.7423C13.1598 8.43592 14.1437 8.43592 14.7506 7.7423L14.7528 7.73995C15.358 7.04593 15.358 5.92313 14.7528 5.22911L11.6763 1.71403C10.9885 0.928006 9.87341 0.928006 9.18547 1.71403L5.05215 6.43744C4.60797 6.94586 4.47551 7.71006 4.71635 8.3738C4.95736 9.03734 5.52402 9.47006 6.15278 9.47006ZM5.55034 7.00838L9.68367 2.2832C10.0964 1.81174 10.7654 1.81174 11.1782 2.2832L14.2546 5.80045C14.5853 6.1797 14.5853 6.7933 14.2546 7.17255L14.2524 7.1751C13.9204 7.55337 13.3831 7.55337 13.0511 7.1751L10.6801 4.46491C10.5424 4.30763 10.3195 4.30763 10.1819 4.46491L6.75351 8.38127C6.41685 8.74951 5.88579 8.74852 5.55034 8.37891C5.22056 7.99986 5.22056 7.38743 5.55034 7.00838Z" fill="#FAFAFA"/>
<path d="M19.5907 10.5114H16.0675V8.49816C16.0675 8.33537 15.9817 8.18871 15.8499 8.12638C15.7183 8.06406 15.5668 8.09846 15.4661 8.21348L13.3522 10.6294C13.2862 10.7048 13.249 10.8073 13.249 10.914V12.5246C13.249 13.1919 13.7221 13.7326 14.306 13.7326H19.5907C20.369 13.7326 21 13.0116 21 12.122C21 11.2325 20.369 10.5114 19.5907 10.5114ZM19.5907 12.9273H14.306C14.1114 12.9273 13.9537 12.747 13.9537 12.5246V11.0808L15.3629 9.47017V10.914C15.3629 11.1364 15.5207 11.3167 15.7152 11.3167H19.5907C19.9798 11.3167 20.2953 11.6773 20.2953 12.122C20.2953 12.5669 19.9798 12.9273 19.5907 12.9273Z" fill="#FAFAFA"/>
<path d="M8.92553 15.7858L7.22451 13.8418C7.08465 13.6908 6.86601 13.6908 6.72632 13.8418L0.455188 21.0089C-0.151729 21.7024 -0.151729 22.8267 0.455188 23.5202V23.5221C1.06228 24.2148 2.04542 24.2148 2.65251 23.5221L8.92364 16.3551C9.06178 16.1984 9.06247 15.9436 8.92553 15.7858ZM2.15535 22.953C1.82368 23.3312 1.28643 23.3312 0.954759 22.953H0.953383C0.621539 22.5741 0.621539 21.9595 0.953383 21.5807L6.97507 14.6958L8.1779 16.0709L2.15535 22.953Z" fill="#FAFAFA"/>
<path d="M10.7584 11.5936C10.3675 11.1335 9.78985 10.9497 9.2471 11.1125C8.70418 11.2755 8.2803 11.7599 8.13752 12.3804C7.9949 13.0007 8.15558 13.6609 8.5583 14.1077L11.3109 17.2528L7.97306 19.2857C7.23075 19.7703 6.97168 20.8503 7.39418 21.6996L7.44424 21.8052C7.72362 22.3575 8.23953 22.6976 8.79776 22.6974C9.06458 22.6978 9.32675 22.6182 9.55813 22.4664L13.9036 19.7955L14.4673 19.4255C14.9433 19.1139 15.2652 18.5663 15.3378 17.9447C15.4102 17.3232 15.2251 16.6984 14.8372 16.2551L10.7584 11.5936ZM14.6392 17.8395C14.5963 18.2119 14.4031 18.5398 14.1174 18.7254L9.21562 21.7621C8.81118 22.027 8.29544 21.8711 8.05873 21.4122L8.00832 21.3066C7.77763 20.8466 7.91319 20.2601 8.31264 19.9903L12.0617 17.7078C12.1602 17.6478 12.228 17.5379 12.2444 17.4117C12.2607 17.2855 12.2239 17.1579 12.1448 17.0676L9.05615 13.5384C8.72362 13.1583 8.72362 12.5422 9.05615 12.1622C9.38868 11.7821 9.92782 11.7821 10.2603 12.1622L14.3409 16.8244C14.5745 17.0902 14.6849 17.4663 14.6392 17.8395Z" fill="#FAFAFA"/>
</g>
<defs>
<clipPath id="clip0">
<rect width="21" height="24" fill="white"/>
</clipPath>
</defs>
</svg>
