<svg width="400" height="400" viewBox="0 0 400 400" fill="none" xmlns="http://www.w3.org/2000/svg">
<path d="M294.06 104.153C268.657 104.153 245.673 113.456 229.239 128.401L184.941 34H47.8871L142.487 235.595L80.68 307.609H67.075C48.8376 307.609 34 320.707 34 336.805C34 352.903 48.8384 366 67.0758 366H133.911C158.62 366 181.934 355.397 196.277 337.637L227.802 298.603L271.755 281.496C285.972 275.962 296.005 265.099 299.279 251.691C302.554 238.283 298.483 224.736 288.111 214.524C285.025 211.485 282.01 208.368 279.071 205.191C302.633 205.144 322.344 190.354 326.966 170.737C349.224 166.652 366 149.204 366 128.363V104.153H294.06ZM209.549 137.275L133.288 165.158L124.841 147.157L201.102 119.274L209.549 137.275ZM170.215 53.4531L192.668 101.301L116.408 129.184L80.8703 53.4531H170.215ZM133.911 346.547H67.0758C60.9903 346.547 56.039 342.176 56.039 336.805C56.039 331.433 60.9903 327.063 67.0758 327.063H91.633L127.409 285.378L183.679 319.724L178.332 326.345C168.116 338.995 151.51 346.547 133.911 346.547V346.547ZM277.736 247.591C275.967 254.836 270.546 260.706 262.864 263.696L213.37 282.96L196.473 303.883L140.729 269.858L167.683 238.454L141.722 183.131L208.289 158.792C205.309 166.698 203.69 175.146 203.69 183.923V205.193H251.244C257.63 212.918 264.491 220.408 271.701 227.509C277.305 233.026 279.505 240.346 277.736 247.591V247.591ZM343.962 128.363C343.962 141.5 331.854 152.188 316.971 152.188H305.952V161.915C305.952 175.052 293.843 185.74 278.96 185.74H225.729V183.923C225.729 150.664 256.382 123.606 294.06 123.606H343.962V128.363H343.962Z" fill="#FAFAFA"/>
</svg>
