<svg width="34" height="34" viewBox="0 0 34 34" fill="none" xmlns="http://www.w3.org/2000/svg">
<g clip-path="url(#clip0)">
<path d="M18.196 0.819336L15.3766 11.6264L5.16946 7.09267L11.861 16.0351L1.95215 21.1885L13.1157 21.5324L10.9668 32.4925L18.196 23.979L25.4252 32.4925L23.2763 21.5324L34.4398 21.1885L24.531 16.0351L31.2225 7.09267L21.0154 11.6264L18.196 0.819336ZM18.196 5.87259L19.7207 12.5529L18.196 13.2872L16.6713 12.5529L18.196 5.87259ZM9.12037 10.2434L15.294 13.2165L14.9173 14.866L13.3924 15.6004L9.12037 10.2434ZM27.2716 10.2434L22.9995 15.6004L21.4747 14.8662L21.098 13.2164L27.2716 10.2434ZM16.3984 13.7484L16.8184 13.9506L16.2946 14.2029L16.3984 13.7484ZM19.9936 13.7484L20.0974 14.2029L19.5735 13.9506L19.9936 13.7484ZM18.196 14.6138L20.4376 15.6933L20.9912 18.1189L19.4399 20.0639H16.9521L15.4008 18.1189L15.9544 15.6933L18.196 14.6138ZM14.5771 16.3567L14.4476 16.9236L14.1569 16.559L14.5771 16.3567ZM21.8149 16.3567L22.2351 16.5589L21.9443 16.9235L21.8149 16.3567ZM13.0524 17.0909L14.1075 18.4141L13.731 20.064H6.87863L13.0524 17.0909ZM23.3396 17.0909L29.5133 20.064H22.661L22.2845 18.4141L23.3396 17.0909ZM15.0607 19.6094L15.4233 20.064H14.9569L15.0607 19.6094ZM21.3312 19.6094L21.4351 20.064H20.9687L21.3312 19.6094ZM14.6841 21.2593H16.3766L17.4316 22.5823L13.1593 27.9396L14.6841 21.2593ZM17.9052 21.2593H18.4868L18.196 21.6239L17.9052 21.2593ZM20.0156 21.2593H21.7079L23.2326 27.9396L18.9604 22.5823L20.0156 21.2593Z" fill="white"/>
</g>
<defs>
<clipPath id="clip0">
<rect width="34" height="34" fill="white"/>
</clipPath>
</defs>
</svg>
