<svg width="24" height="25" viewBox="0 0 24 25" fill="none" xmlns="http://www.w3.org/2000/svg">
<g clip-path="url(#clip0)">
<path d="M14.3215 4.03711C14.0632 4.03711 13.8535 4.255 13.8535 4.52347C13.8535 4.79195 14.0632 5.00984 14.3215 5.00984C14.5799 5.00984 14.7895 4.79195 14.7895 4.52347C14.7895 4.255 14.5799 4.03711 14.3215 4.03711Z" fill="#FAFAFA"/>
<path d="M9.64086 4.03711C9.38252 4.03711 9.17285 4.255 9.17285 4.52347C9.17285 4.79195 9.38252 5.00984 9.64086 5.00984C9.89921 5.00984 10.1089 4.79195 10.1089 4.52347C10.1089 4.255 9.89921 4.03711 9.64086 4.03711Z" fill="#FAFAFA"/>
<path d="M22.1427 14.5366C22.5444 13.91 22.7453 13.1283 22.7453 12.4509C22.7453 11.4298 22.3088 10.481 21.5598 9.83766C21.7255 9.426 21.8093 8.99785 21.8093 8.56003C21.8093 7.20526 21.0485 5.94324 19.9174 5.35391C20.089 3.87468 19.1615 2.51879 17.787 2.17293C17.249 0.880515 16.0516 0 14.7891 0C13.614 0 12.56 0.71233 11.9811 1.75169C11.4021 0.71233 10.3481 0 9.173 0C7.91044 0 6.71303 0.880516 6.17515 2.17298C4.79241 2.52102 3.87361 3.88367 4.04476 5.35391C2.91367 5.94319 2.15282 7.20526 2.15282 8.56003C2.15282 8.99785 2.23659 9.426 2.40236 9.83766C1.65331 10.4811 1.2168 11.4298 1.2168 12.4509C1.2168 13.1319 1.41945 13.9126 1.81946 14.5365C1.42857 15.11 1.2168 15.7896 1.2168 16.4878C1.2168 17.3932 1.57005 18.2557 2.19489 18.8962C1.87365 20.9142 3.4223 22.9564 5.4289 22.9564C5.44341 22.9564 5.45769 22.9562 5.47168 22.9558C6.13696 24.1484 7.37185 24.9019 8.70499 24.9019C10.0944 24.9019 11.336 24.0352 11.9811 22.7865C12.6262 24.0352 13.8677 24.9019 15.2571 24.9019C16.5903 24.9019 17.8252 24.1484 18.4905 22.9558C18.5045 22.9562 18.5187 22.9564 18.5332 22.9564C20.3091 22.9564 21.8093 21.3305 21.8093 19.406C21.8093 19.2421 21.7955 19.0736 21.7672 18.8962C22.3921 18.2557 22.7453 17.3932 22.7453 16.4878C22.7453 15.7896 22.5336 15.11 22.1427 14.5366ZM11.5131 7.36264C11.2375 7.19655 10.9179 7.10093 10.577 7.10093C10.3185 7.10093 10.109 7.31868 10.109 7.5873C10.109 7.85592 10.3185 8.07366 10.577 8.07366C11.0932 8.07366 11.5131 8.51003 11.5131 9.04639V18.2955C10.8264 17.4862 9.82246 16.9741 8.70499 16.9741C8.4465 16.9741 8.23697 17.1919 8.23697 17.4605C8.23697 17.7291 8.4465 17.9469 8.70499 17.9469C10.2534 17.9469 11.5131 19.256 11.5131 20.8651C11.5131 22.526 10.2271 23.9292 8.70499 23.9292C7.62144 23.9292 6.62397 23.2633 6.16373 22.2327C6.07888 22.0428 5.88671 21.9308 5.68636 21.9542C5.65327 21.9582 5.62037 21.9627 5.58747 21.9674C4.2555 22.1567 2.75553 20.5893 3.16157 18.8359C3.20327 18.6558 3.1429 18.4667 3.00591 18.3483C2.46377 17.8795 2.15282 17.2013 2.15282 16.4878C2.15282 16.0466 2.27287 15.6148 2.49625 15.2363C3.05758 15.7144 3.75581 16.0014 4.49288 16.0014C4.75136 16.0014 4.96089 15.7837 4.96089 15.515C4.96089 15.2464 4.75136 15.0287 4.49288 15.0287C3.22274 15.0287 2.15282 13.824 2.15282 12.4509C2.15282 11.618 2.56135 10.8518 3.24572 10.4013C3.45656 10.2625 3.5255 9.97618 3.40236 9.75055C3.19433 9.36929 3.08884 8.96872 3.08884 8.56003C3.08884 7.24733 4.11856 5.98229 5.4289 5.98229C6.6755 5.98229 7.76896 7.18687 7.76896 8.56003C7.76896 8.82865 7.97849 9.04639 8.23697 9.04639C8.49546 9.04639 8.70499 8.82865 8.70499 8.56003C8.70499 6.63548 7.20473 5.00956 5.4289 5.00956C5.27221 5.00956 5.11636 5.02274 4.96206 5.04769C4.96183 5.0349 4.96089 5.02245 4.96089 5.00956C4.96089 3.92414 5.80879 3.0641 6.83294 3.0641C7.33287 3.0641 7.80313 3.26648 8.15704 3.63388C8.33989 3.8237 8.63619 3.82351 8.8189 3.63354C9.00156 3.44346 9.00142 3.13555 8.81857 2.94572C8.3916 2.50249 7.85157 2.21982 7.26632 2.12615C7.67906 1.48944 8.3654 0.97273 9.173 0.97273C10.4196 0.97273 11.5131 2.17726 11.5131 3.55047V7.36264ZM19.4693 16.0014C20.2064 16.0014 20.9046 15.7143 21.4659 15.2364C21.6893 15.6149 21.8093 16.0466 21.8093 16.4878C21.8093 17.2013 21.4984 17.8795 20.9563 18.3483C20.8192 18.4667 20.7589 18.6558 20.8006 18.8359C20.8502 19.05 20.8733 19.2312 20.8733 19.4059C20.8733 20.9156 19.5593 22.1357 18.3747 21.9674C18.3418 21.9627 18.3089 21.9581 18.2758 21.9542C18.0751 21.9306 17.8832 22.0428 17.7985 22.2327C17.3382 23.2633 16.3406 23.9292 15.2571 23.9292C13.735 23.9292 12.4491 22.526 12.4491 20.8651C12.4491 19.256 13.7088 17.9469 15.2571 17.9469C15.5156 17.9469 15.7252 17.7291 15.7252 17.4605C15.7252 17.1919 15.5156 16.9741 15.2571 16.9741C14.1397 16.9741 13.1357 17.4862 12.4491 18.2955V9.04639C12.4491 8.51003 12.869 8.07366 13.3851 8.07366C13.6435 8.07366 13.8531 7.85592 13.8531 7.5873C13.8531 7.31868 13.6435 7.10093 13.3851 7.10093C13.0442 7.10093 12.7246 7.19655 12.4491 7.36264V3.55047C12.4491 2.17726 13.5425 0.97273 14.7891 0.97273C15.5967 0.97273 16.283 1.48944 16.6958 2.1261C16.1106 2.21977 15.5706 2.50245 15.1436 2.94567C14.9607 3.1355 14.9605 3.44342 15.1431 3.63349C15.3258 3.82356 15.6222 3.8237 15.805 3.63388C16.1591 3.26648 16.6293 3.0641 17.1292 3.0641C18.1585 3.0641 19.0012 3.9292 19.0012 5.00956C19.0012 5.0224 19.0003 5.0349 19.0001 5.04769C18.8458 5.02274 18.6899 5.00956 18.5332 5.00956C16.7574 5.00956 15.2571 6.63548 15.2571 8.56003C15.2571 8.82865 15.4667 9.04639 15.7252 9.04639C15.9836 9.04639 16.1932 8.82865 16.1932 8.56003C16.1932 7.18687 17.2866 5.98229 18.5332 5.98229C19.8428 5.98229 20.8733 7.24669 20.8733 8.56003C20.8733 8.96872 20.7678 9.36929 20.5598 9.75055C20.4367 9.97618 20.5056 10.2625 20.7165 10.4013C21.4008 10.8518 21.8093 11.618 21.8093 12.4509C21.8093 13.8289 20.7356 15.0287 19.4693 15.0287C19.2108 15.0287 19.0012 15.2464 19.0012 15.515C19.0012 15.7837 19.2108 16.0014 19.4693 16.0014Z" fill="#FAFAFA"/>
<path d="M10.4579 10.4109C10.2856 10.2107 9.98972 10.1936 9.79704 10.3726C8.29622 11.7678 5.89696 10.6528 5.89696 8.5601C5.89696 8.29148 5.68743 8.07373 5.42895 8.07373C5.17047 8.07373 4.96094 8.29148 4.96094 8.5601C4.96094 10.2485 6.15001 11.6531 7.70349 11.9188C7.5233 12.5087 6.99145 12.9374 6.36497 12.9374C6.10649 12.9374 5.89696 13.1551 5.89696 13.4237C5.89696 13.6924 6.10649 13.9101 6.36497 13.9101C7.50491 13.9101 8.45652 13.0585 8.663 11.9354C9.31387 11.8469 9.92645 11.5575 10.4211 11.0976C10.6137 10.9185 10.6302 10.611 10.4579 10.4109Z" fill="#FAFAFA"/>
<path d="M5.42895 18.9194C5.17047 18.9194 4.96094 19.1372 4.96094 19.4058C4.96094 19.6744 5.17047 19.8922 5.42895 19.8922C6.67555 19.8922 7.76901 21.0967 7.76901 22.4699C7.76901 22.7385 7.97854 22.9563 8.23702 22.9563C8.4955 22.9563 8.70503 22.7385 8.70503 22.4699C8.70503 20.5454 7.20477 18.9194 5.42895 18.9194Z" fill="#FAFAFA"/>
<path d="M9.17273 15.0288C7.58682 15.0288 6.22519 15.9327 5.5082 17.247C5.38076 17.4807 5.45971 17.7775 5.68454 17.91C5.90942 18.0424 6.195 17.9604 6.32249 17.7267C6.88106 16.7026 7.94092 16.0015 9.17273 16.0015C9.43121 16.0015 9.64074 15.7838 9.64074 15.5152C9.64074 15.2466 9.43121 15.0288 9.17273 15.0288Z" fill="#FAFAFA"/>
<path d="M17.5969 12.9374C16.9704 12.9374 16.4386 12.5087 16.2584 11.9188C17.8118 11.6531 19.0009 10.2485 19.0009 8.5601C19.0009 8.29148 18.7913 8.07373 18.5329 8.07373C18.2745 8.07373 18.0649 8.29148 18.0649 8.5601C18.0649 9.901 17.0151 10.9919 15.7248 10.9919C15.1484 10.9919 14.5944 10.772 14.1648 10.3726C13.9722 10.1936 13.6763 10.2106 13.504 10.4109C13.3316 10.611 13.3481 10.9185 13.5408 11.0976C14.0354 11.5575 14.648 11.8469 15.2988 11.9354C15.5053 13.0585 16.4569 13.9101 17.5969 13.9101C17.8553 13.9101 18.0649 13.6924 18.0649 13.4237C18.0649 13.1551 17.8553 12.9374 17.5969 12.9374Z" fill="#FAFAFA"/>
<path d="M18.5329 18.9194C16.7571 18.9194 15.2568 20.5454 15.2568 22.4699C15.2568 22.7385 15.4664 22.9563 15.7248 22.9563C15.9833 22.9563 16.1929 22.7385 16.1929 22.4699C16.1929 21.0967 17.2863 19.8922 18.5329 19.8922C18.7914 19.8922 19.0009 19.6744 19.0009 19.4058C19.0009 19.1372 18.7914 18.9194 18.5329 18.9194Z" fill="#FAFAFA"/>
<path d="M18.4538 17.2471C17.7386 15.9359 16.3789 15.0288 14.7893 15.0288C14.5309 15.0288 14.3213 15.2466 14.3213 15.5152C14.3213 15.7838 14.5309 16.0015 14.7893 16.0015C16.0202 16.0015 17.0809 16.7024 17.6394 17.7267C17.7671 17.9607 18.0529 18.0423 18.2774 17.91C18.5023 17.7776 18.5812 17.4808 18.4538 17.2471Z" fill="#FAFAFA"/>
</g>
<defs>
<clipPath id="clip0">
<rect width="23.9622" height="24.9019" fill="white"/>
</clipPath>
</defs>
</svg>
