<svg width="24" height="24" viewBox="0 0 24 24" fill="none" xmlns="http://www.w3.org/2000/svg">
<g clip-path="url(#clip0)">
<path d="M20.3775 8.51824L18.5911 7.1852L18.6571 7.0945C18.9543 6.68642 18.8686 6.11189 18.4654 5.81103L16.6794 4.47811L16.8234 4.2802C17.1207 3.87212 17.0347 3.29746 16.6315 2.9966L14.1148 1.11913C13.9211 0.974582 13.6791 0.913627 13.4408 0.950347C13.2028 0.986699 12.9891 1.1173 12.8462 1.31326L12.7019 1.51142L10.9158 0.179115C10.5127 -0.121618 9.94468 -0.0348378 9.64723 0.373238L7.48742 3.33699L6.86276 2.99893C6.63813 2.87739 6.37322 2.85695 6.1331 2.94275C5.89287 3.02855 5.69933 3.21251 5.59977 3.44972L3.0438 9.54296C2.92296 9.83108 2.9555 10.1614 3.12993 10.4198L7.81414 17.3526L7.07058 22.9473C7.0038 23.4497 7.3523 23.9118 7.84886 23.9795C7.88986 23.985 7.93063 23.9878 7.97091 23.9878C8.41824 23.9878 8.80762 23.653 8.86895 23.1921L9.65884 17.2479C9.68872 17.023 9.63525 16.7948 9.50861 16.6075L4.90798 9.79816L6.88235 5.09157L11.9716 7.84566L11.3289 8.72779L9.54223 7.39499C9.13894 7.09413 8.57101 7.18091 8.27368 7.58911C7.97635 7.99719 8.06224 8.57185 8.46553 8.8727L10.9824 10.7503C10.9824 10.7504 10.9826 10.7504 10.9827 10.7504L13.4984 12.6276C13.4985 12.6278 13.4986 12.6278 13.4987 12.6279L16.0156 14.505C16.1777 14.6259 16.3662 14.6841 16.5532 14.6841C16.7032 14.6841 16.8517 14.6453 16.985 14.5723L16.8624 15.5995L15.1217 17.5102C14.9559 17.6924 14.8696 17.9346 14.8828 18.182L15.1471 23.1316C15.1732 23.6211 15.5735 24.0002 16.0522 24C16.0687 24 16.0852 23.9997 16.1019 23.9987C16.6023 23.9713 16.986 23.5387 16.9589 23.0325L16.7153 18.4696L18.3949 16.6259C18.5238 16.4843 18.6056 16.3051 18.6286 16.1139L19.1499 11.7498L20.5692 9.80171C20.8665 9.39375 20.7808 8.81909 20.3775 8.51824ZM10.5692 2.20163L11.6251 2.98926L10.2735 4.8447L9.10422 4.21202L10.5692 2.20163ZM11.8903 5.7196L13.7685 3.14164L14.8246 3.92965L13.0595 6.3524L11.8903 5.7196ZM14.1315 7.97528C14.1315 7.97528 14.1316 7.97528 14.1315 7.97528L14.2659 7.79083L15.6028 5.95595L16.6585 6.74383L16.5965 6.82902C16.595 6.83085 16.5935 6.83257 16.5921 6.8344L13.8452 10.6051L12.7893 9.81738L14.1315 7.97528ZM16.3619 12.4825L15.3057 11.6947L17.5144 8.66304L18.5705 9.45104L17.5382 10.8679L17.5381 10.8682L16.3619 12.4825Z" fill="#FAFAFA"/>
</g>
<defs>
<clipPath id="clip0">
<rect width="23.7188" height="24" fill="white"/>
</clipPath>
</defs>
</svg>
